<?xml version="1.0" standalone="no"?>
<!DOCTYPE svg PUBLIC "-//W3C//DTD SVG 20010904//EN"
 "http://www.w3.org/TR/2001/REC-SVG-20010904/DTD/svg10.dtd">
<svg version="1.0" xmlns="http://www.w3.org/2000/svg"
 width="744.000000pt" height="744.000000pt" viewBox="0 0 744.000000 744.000000"
 preserveAspectRatio="xMidYMid meet">
<metadata>
Created by potrace 1.14, written by Peter Selinger 2001-2017
</metadata>
<g transform="translate(0.000000,744.000000) scale(0.100000,-0.100000)"
fill="#000000" stroke="none">
<path d="M3552 7417 c-16 -19 1 -39 33 -39 33 0 48 13 39 35 -7 20 -57 23 -72
4z"/>
<path d="M3642 7418 c3 -7 15 -18 27 -24 12 -6 32 -20 44 -31 12 -12 32 -24
45 -28 17 -5 21 -12 17 -26 -8 -25 9 -24 33 1 18 19 18 19 58 -2 21 -11 51
-22 65 -23 15 -1 37 -10 50 -19 13 -9 27 -16 31 -16 12 0 9 35 -3 47 -9 9 -5
14 14 18 20 5 34 1 58 -19 17 -15 43 -26 59 -26 25 0 30 5 36 35 11 61 4 67
-83 61 -45 -2 -92 -12 -112 -21 -45 -24 -81 -22 -101 5 -10 13 -26 21 -41 20
-50 -4 -64 1 -80 28 -14 25 -23 29 -68 31 -40 1 -52 -1 -49 -11z"/>
<path d="M3927 7417 c-8 -22 7 -37 44 -43 44 -7 73 18 41 35 -34 18 -79 22
-85 8z"/>
<path d="M3356 7410 c-16 -5 -14 -10 17 -33 39 -29 78 -35 96 -14 14 17 4 27
-25 27 -13 0 -25 4 -28 9 -8 13 -39 19 -60 11z"/>
<path d="M3215 7390 c-3 -6 1 -13 9 -16 22 -8 68 4 61 16 -8 13 -62 13 -70 0z"/>
<path d="M4228 7365 c-62 -35 -14 -67 61 -40 24 8 58 15 75 15 37 0 64 14 47
25 -7 3 -44 9 -84 11 -53 3 -79 1 -99 -11z"/>
<path d="M3423 7330 c-44 -22 -84 -44 -88 -51 -10 -15 15 -30 37 -23 9 3 25
-2 35 -11 91 -79 103 -85 122 -61 10 12 8 17 -11 27 -12 7 -31 23 -41 36 -10
12 -27 23 -38 23 -11 0 -17 5 -14 10 3 6 18 8 32 6 52 -10 127 58 84 76 -25
10 -31 9 -118 -32z"/>
<path d="M3038 7353 c-10 -2 -18 -13 -18 -24 0 -14 7 -19 26 -19 33 0 64 17
64 35 0 15 -33 18 -72 8z"/>
<path d="M3224 7346 c-13 -10 -16 -21 -11 -44 l7 -32 -96 0 c-76 0 -96 -3
-101 -15 -8 -24 3 -29 53 -26 25 1 66 -6 90 -15 72 -27 189 -7 167 29 -3 4
-11 6 -19 3 -12 -5 -18 5 -16 26 1 3 -5 12 -13 18 -8 7 -15 23 -15 35 0 28
-22 38 -46 21z"/>
<path d="M2901 7321 c-6 -11 -8 -26 -5 -34 3 -8 1 -18 -5 -22 -16 -9 -13 -51
5 -65 21 -18 64 -2 75 27 6 15 2 29 -11 45 -10 13 -18 33 -17 43 3 26 -29 31
-42 6z"/>
<path d="M4505 7328 c13 -32 109 -59 118 -34 8 20 -15 32 -76 41 -39 6 -46 5
-42 -7z"/>
<path d="M3593 7315 c-55 -24 -35 -63 42 -84 56 -14 85 -11 85 11 0 10 -4 18
-9 18 -5 0 -26 16 -47 35 -21 19 -38 35 -38 35 -1 -1 -16 -7 -33 -15z"/>
<path d="M4355 7313 c-16 -16 -16 -17 0 -29 14 -11 13 -13 -12 -18 -15 -3 -50
-8 -77 -11 -27 -2 -51 -7 -54 -10 -16 -15 60 -43 111 -41 15 1 27 -2 27 -6 0
-4 -4 -8 -10 -8 -16 0 -12 -37 5 -44 34 -13 71 29 40 46 -14 8 -14 11 0 24 12
12 13 20 4 36 -11 20 -5 30 25 41 5 2 7 11 3 20 -8 22 -41 22 -62 0z"/>
<path d="M2693 7283 c-25 -9 -12 -32 32 -58 41 -23 44 -28 30 -41 -20 -21 -19
-31 6 -37 31 -8 91 20 87 41 -3 13 -12 16 -37 14 -34 -2 -34 -2 -16 18 18 20
18 21 -1 41 -19 19 -75 31 -101 22z"/>
<path d="M4464 7275 c-10 -24 14 -47 37 -34 15 8 17 14 9 29 -13 24 -38 26
-46 5z"/>
<path d="M3844 7244 c-15 -22 -15 -27 -2 -40 33 -34 98 15 68 51 -19 23 -48
18 -66 -11z"/>
<path d="M4678 7263 c-25 -6 -22 -32 4 -42 27 -10 60 -3 55 12 -5 17 -41 34
-59 30z"/>
<path d="M4774 7262 c11 -18 15 -68 6 -82 -8 -12 -13 -11 -31 9 -19 20 -23 21
-30 8 -12 -21 -1 -47 21 -47 10 0 23 -7 31 -16 7 -8 26 -22 43 -31 58 -30 70
-63 31 -81 -14 -6 -25 -18 -25 -25 0 -8 -9 -22 -20 -32 -19 -17 -19 -19 -2
-31 23 -18 72 -18 72 -1 0 32 39 51 100 49 32 -1 61 2 64 7 8 12 65 -2 99 -24
30 -19 62 -13 53 10 -3 9 1 18 9 21 22 9 19 54 -2 54 -15 0 -14 2 3 15 12 8
30 13 41 11 11 -3 25 -1 32 3 20 13 -37 29 -103 30 -45 1 -65 6 -81 21 -16 15
-34 19 -73 19 -31 -1 -59 4 -68 12 -15 12 -14 15 9 24 39 16 21 30 -74 59 -90
27 -114 31 -105 18z m141 -121 c8 -39 43 -55 99 -47 37 6 50 3 73 -13 15 -12
40 -22 56 -23 32 -3 34 -9 8 -25 -11 -7 -31 -9 -52 -4 -19 4 -67 6 -106 4 -75
-4 -81 -1 -74 40 1 4 -7 10 -16 14 -50 17 -71 72 -36 92 23 12 40 -1 48 -38z"/>
<path d="M4542 7238 c-7 -7 -12 -17 -12 -23 0 -20 40 -55 63 -55 12 0 30 -9
40 -20 15 -17 21 -19 39 -9 l22 12 -23 16 c-13 9 -39 33 -59 54 -38 39 -51 44
-70 25z"/>
<path d="M2477 7215 c-15 -8 -31 -14 -35 -15 -63 -5 -50 -52 14 -50 21 1 48
-1 59 -5 14 -4 27 0 39 14 21 24 17 34 -17 36 -12 1 -22 7 -22 12 0 20 -11 22
-38 8z"/>
<path d="M4457 7218 c-23 -12 -21 -35 4 -49 17 -8 24 -8 36 3 26 27 -6 65 -40
46z"/>
<path d="M2627 7197 c-11 -8 -14 -17 -8 -26 11 -17 41 -7 41 13 0 21 -15 27
-33 13z"/>
<path d="M3015 7205 c-5 -2 -22 -6 -37 -9 -54 -12 -26 -49 32 -42 14 2 30 4
37 5 17 2 44 31 38 42 -6 9 -49 11 -70 4z"/>
<path d="M3650 7184 c-67 -47 -32 -80 43 -40 26 14 37 26 37 43 0 31 -34 30
-80 -3z"/>
<path d="M4003 7203 c-44 -17 52 -81 103 -69 37 10 29 35 -18 56 -43 20 -63
23 -85 13z"/>
<path d="M3365 7180 c-8 -13 12 -40 29 -40 6 0 17 4 25 9 12 8 12 12 2 25 -15
18 -47 21 -56 6z"/>
<path d="M3812 7181 c-7 -4 -13 -16 -15 -26 -2 -11 -8 -30 -15 -42 -17 -31
-16 -33 18 -33 24 0 31 5 36 28 4 15 11 32 18 37 13 12 19 35 9 36 -5 0 -15 2
-24 4 -9 1 -21 0 -27 -4z"/>
<path d="M4216 7151 c-15 -24 24 -70 60 -71 29 0 35 9 22 34 -21 39 -68 60
-82 37z"/>
<path d="M3150 7137 c-27 -14 -46 -56 -37 -81 6 -15 9 -15 35 -2 16 8 34 21
41 30 7 8 25 18 41 21 32 7 46 30 24 39 -26 10 -78 6 -104 -7z"/>
<path d="M4438 7138 c-35 -12 -36 -31 -3 -52 54 -35 119 -9 81 33 -22 25 -45
30 -78 19z"/>
<path d="M2568 7129 c-25 -14 -22 -38 6 -49 49 -18 116 11 103 44 -7 19 -81
22 -109 5z"/>
<path d="M2794 7116 c-10 -42 10 -54 44 -29 25 18 31 19 53 7 34 -19 57 -17
69 6 11 21 11 21 -30 26 -14 1 -48 6 -77 10 -50 6 -52 6 -59 -20z"/>
<path d="M2366 7105 c-34 -18 -52 -22 -69 -16 -31 12 -54 -2 -62 -39 -4 -19
-17 -36 -36 -45 -16 -9 -31 -26 -35 -39 -3 -14 -18 -29 -35 -36 -16 -7 -29
-15 -29 -19 0 -4 -16 -23 -36 -44 -39 -40 -63 -44 -79 -12 -6 11 -20 24 -32
30 -35 18 -12 40 43 40 44 0 49 3 79 45 17 25 40 47 49 48 23 5 112 61 109 69
-7 26 -91 6 -133 -32 -8 -7 -27 -16 -41 -20 -15 -4 -31 -17 -38 -31 -16 -35
-69 -65 -112 -62 -23 1 -43 -4 -53 -14 -9 -9 -25 -20 -37 -23 -16 -5 -18 -10
-8 -21 6 -8 18 -14 25 -14 20 0 17 -13 -6 -30 -11 -8 -20 -20 -20 -27 0 -14
36 -18 44 -5 2 4 30 9 60 10 70 2 74 -15 17 -73 -49 -50 -111 -121 -111 -128
0 -2 9 -7 19 -10 15 -3 36 12 80 57 32 33 71 69 85 78 14 10 26 30 28 45 2 23
11 30 50 43 46 15 92 54 85 74 -5 16 24 43 54 51 14 4 48 24 74 46 26 21 52
40 59 40 6 1 28 3 49 4 45 3 43 1 50 48 5 34 4 37 -17 37 -13 0 -44 -11 -70
-25z"/>
<path d="M3284 7109 c-10 -16 18 -39 51 -42 34 -2 47 26 18 38 -34 13 -62 15
-69 4z"/>
<path d="M3580 7101 c0 -12 -9 -21 -25 -25 -22 -6 -24 -9 -15 -26 11 -20 45
-26 66 -12 16 10 5 82 -12 82 -8 0 -14 -9 -14 -19z"/>
<path d="M4610 7105 c0 -9 9 -15 21 -15 18 0 19 2 9 15 -7 8 -16 15 -21 15 -5
0 -9 -7 -9 -15z"/>
<path d="M4031 7090 c-33 -8 -51 -37 -31 -50 18 -12 78 -6 92 8 26 26 -15 54
-61 42z"/>
<path d="M2694 7042 c-4 -15 -11 -33 -17 -40 -7 -9 -7 -16 1 -24 17 -17 60 6
68 36 7 30 1 42 -26 49 -16 4 -22 -1 -26 -21z"/>
<path d="M2983 7054 c-8 -20 14 -40 54 -49 39 -8 50 8 29 40 -19 29 -73 35
-83 9z"/>
<path d="M4183 7063 c-31 -12 7 -53 45 -47 6 1 21 2 32 3 24 1 26 14 4 35 -15
15 -55 20 -81 9z"/>
<path d="M4591 7043 c-15 -11 -15 -13 1 -29 14 -14 22 -15 49 -5 17 6 47 11
65 11 27 0 34 4 34 19 0 17 -7 19 -66 18 -37 -1 -74 -7 -83 -14z"/>
<path d="M3379 7034 c-11 -14 -10 -18 6 -30 27 -20 45 -17 45 6 0 28 -34 44
-51 24z"/>
<path d="M2437 7033 c-4 -3 -7 -16 -7 -28 0 -22 -22 -50 -32 -40 -3 3 -13 -4
-23 -16 -16 -17 -17 -22 -5 -29 21 -13 63 -4 77 17 14 21 20 27 53 53 24 20
25 20 6 35 -20 16 -58 20 -69 8z"/>
<path d="M3907 7034 c-4 -4 -4 -10 -1 -15 6 -10 34 0 34 12 0 10 -24 12 -33 3z"/>
<path d="M5362 7018 c4 -29 125 -93 145 -76 7 6 11 14 8 18 -7 11 -104 65
-133 75 -21 6 -23 4 -20 -17z"/>
<path d="M2841 7011 c-7 -5 -10 -14 -7 -20 10 -16 43 -14 49 3 10 25 -14 34
-42 17z"/>
<path d="M4463 7013 c-20 -7 -15 -30 6 -36 22 -5 31 0 31 19 0 14 -20 23 -37
17z"/>
<path d="M3222 6997 c-9 -10 -7 -19 5 -37 9 -13 12 -20 6 -17 -15 10 -39 -21
-26 -34 14 -14 67 7 60 24 -3 7 1 21 9 32 25 33 -27 64 -54 32z"/>
<path d="M3663 6994 c-7 -19 14 -34 36 -26 23 8 32 25 18 34 -20 13 -47 9 -54
-8z"/>
<path d="M4325 6981 c-8 -20 8 -33 36 -29 16 2 25 11 27 26 3 19 -1 22 -27 20
-17 -1 -33 -9 -36 -17z"/>
<path d="M3427 6979 c-21 -12 -22 -35 -3 -42 21 -8 56 4 56 19 0 20 -32 34
-53 23z"/>
<path d="M3811 6981 c-21 -14 -5 -41 24 -41 22 0 26 4 23 22 -3 25 -25 33 -47
19z"/>
<path d="M4098 6983 c-21 -5 -31 -30 -13 -36 22 -9 56 4 53 21 -3 17 -15 22
-40 15z"/>
<path d="M5206 6973 c-8 -19 9 -33 41 -33 25 0 35 20 17 37 -18 18 -51 16 -58
-4z"/>
<path d="M2490 6951 c-17 -33 5 -42 67 -28 13 3 25 2 28 -3 7 -11 42 -5 61 11
29 24 8 34 -70 35 -62 1 -78 -2 -86 -15z"/>
<path d="M4506 6963 c-20 -20 9 -63 42 -63 15 0 21 38 8 48 -17 14 -43 21 -50
15z"/>
<path d="M4183 6934 c-7 -18 12 -34 43 -34 28 0 35 9 23 31 -12 23 -57 25 -66
3z"/>
<path d="M5337 6943 c-23 -22 14 -53 39 -32 11 9 11 15 3 25 -12 15 -31 18
-42 7z"/>
<path d="M2891 6927 c-6 -6 -11 -19 -11 -29 0 -27 -30 -38 -60 -23 -31 16 -70
3 -70 -23 0 -16 10 -20 61 -25 76 -7 86 -3 94 34 4 16 11 31 16 34 14 9 11 32
-5 38 -7 3 -19 0 -25 -6z"/>
<path d="M3672 6918 c2 -16 11 -24 29 -26 33 -4 47 23 19 38 -32 17 -52 12
-48 -12z"/>
<path d="M5014 6915 c-16 -14 -41 -25 -56 -25 -41 0 -56 -9 -51 -30 8 -29 39
-34 71 -13 35 25 58 19 77 -18 16 -30 65 -71 90 -75 44 -6 14 62 -39 90 -39
21 -42 27 -26 56 8 15 6 21 -9 30 -26 13 -23 14 -57 -15z"/>
<path d="M5550 6926 c0 -17 26 -39 51 -43 25 -4 24 12 -3 37 -25 23 -48 26
-48 6z"/>
<path d="M3513 6924 c-17 -7 -4 -34 16 -34 18 0 41 18 41 32 0 9 -37 10 -57 2z"/>
<path d="M5453 6923 c-20 -7 -15 -30 9 -47 16 -11 25 -13 35 -5 23 20 -13 63
-44 52z"/>
<path d="M2615 6895 c-17 -13 -17 -17 -5 -29 20 -19 63 -3 58 21 -4 23 -28 26
-53 8z"/>
<path d="M4683 6894 c-6 -17 12 -34 38 -34 19 0 33 26 19 35 -23 14 -51 13
-57 -1z"/>
<path d="M2235 6892 c-22 -5 -45 -21 -45 -31 0 -3 11 -18 25 -33 32 -37 52
-28 51 22 -2 45 -4 48 -31 42z"/>
<path d="M4781 6886 c-10 -12 -7 -18 14 -32 23 -15 24 -18 8 -29 -15 -11 -15
-15 -4 -29 7 -9 20 -16 28 -16 20 0 27 28 12 46 -10 12 -10 15 2 12 17 -4 13
29 -6 48 -18 18 -40 18 -54 0z"/>
<path d="M4497 6876 c-7 -17 12 -35 41 -41 24 -4 37 21 21 41 -15 18 -55 18
-62 0z"/>
<path d="M4638 6879 c-25 -14 -22 -24 7 -37 21 -10 27 -9 32 4 9 23 -18 45
-39 33z"/>
<path d="M5247 6861 c-48 -24 -52 -41 -10 -48 97 -17 100 -17 107 11 8 33 -8
65 -32 63 -9 -1 -39 -13 -65 -26z"/>
<path d="M2314 6853 c-17 -18 -10 -31 22 -43 33 -13 74 4 74 30 0 11 -6 21
-12 22 -49 6 -71 3 -84 -9z"/>
<path d="M3025 6856 c-19 -14 -19 -16 -3 -32 16 -16 18 -16 43 0 14 10 24 23
22 29 -6 18 -40 20 -62 3z"/>
<path d="M5457 6849 c-25 -14 -21 -45 10 -69 31 -24 47 -22 51 9 2 13 12 26
23 28 32 9 21 30 -16 31 -20 1 -39 3 -43 6 -4 2 -15 0 -25 -5z"/>
<path d="M1732 6839 c-15 -5 -22 -15 -20 -26 6 -30 68 -8 68 23 0 16 -15 17
-48 3z"/>
<path d="M5643 6842 c-22 -16 -21 -42 3 -71 39 -47 75 -17 48 40 -14 29 -35
41 -51 31z"/>
<path d="M3448 6827 c-28 -12 -27 -28 2 -39 22 -8 54 17 47 37 -7 18 -13 18
-49 2z"/>
<path d="M3799 6829 c-12 -8 -12 -10 1 -19 19 -12 37 -13 45 -1 9 15 -28 31
-46 20z"/>
<path d="M4376 6831 c-10 -16 5 -39 34 -51 33 -14 50 -7 50 20 0 31 -69 56
-84 31z"/>
<path d="M2550 6823 c-37 -12 -60 -28 -60 -41 0 -19 65 -10 91 14 28 26 11 41
-31 27z"/>
<path d="M3220 6815 c-15 -18 -8 -28 20 -30 23 -2 45 19 35 35 -9 15 -41 12
-55 -5z"/>
<path d="M4203 6823 c-20 -7 -15 -30 6 -36 22 -5 31 0 31 19 0 14 -20 23 -37
17z"/>
<path d="M5740 6822 c0 -18 27 -45 39 -38 6 4 9 12 6 17 -9 14 -45 31 -45 21z"/>
<path d="M4065 6810 c-8 -13 13 -40 30 -40 15 0 24 19 18 38 -6 15 -39 16 -48
2z"/>
<path d="M2203 6775 c-13 -9 -20 -22 -17 -30 8 -20 27 -19 47 3 34 37 12 56
-30 27z"/>
<path d="M1797 6764 c-14 -8 -28 -10 -31 -5 -3 5 -21 5 -40 1 -19 -4 -37 -5
-40 -2 -3 2 -17 -3 -32 -13 -15 -9 -38 -15 -53 -13 -29 4 -42 -5 -54 -35 -10
-26 20 -33 54 -13 20 12 43 16 78 12 36 -3 53 -1 61 10 7 8 29 14 49 14 40 0
55 7 64 32 8 22 -23 29 -56 12z"/>
<path d="M3765 6756 c-18 -13 -18 -14 2 -25 22 -11 53 -6 53 10 0 18 -37 28
-55 15z"/>
<path d="M2042 6747 c-25 -12 -26 -40 -1 -45 17 -3 49 22 49 38 0 14 -24 18
-48 7z"/>
<path d="M3220 6741 c-7 -14 -6 -21 3 -24 22 -7 47 5 47 24 0 25 -36 25 -50 0z"/>
<path d="M5606 6734 c-8 -20 -10 -17 32 -38 37 -19 65 -15 56 8 -5 12 -61 46
-77 46 -3 0 -8 -7 -11 -16z"/>
<path d="M5850 6731 c14 -26 25 -32 45 -24 15 5 15 8 -6 24 -33 25 -53 25 -39
0z"/>
<path d="M2470 6723 c-36 -14 -32 -53 5 -53 34 0 50 24 30 44 -9 9 -17 16 -18
15 -1 0 -9 -3 -17 -6z"/>
<path d="M3275 6716 c-18 -13 -18 -14 1 -24 25 -13 49 0 41 22 -8 20 -18 20
-42 2z"/>
<path d="M5790 6712 c-44 -22 -55 -67 -18 -81 27 -10 48 3 48 30 0 10 7 22 17
27 10 6 14 16 10 26 -8 20 -14 20 -57 -2z"/>
<path d="M2886 6701 c-14 -16 -15 -20 -2 -30 11 -9 20 -10 35 -1 26 13 27 26
2 39 -14 8 -22 6 -35 -8z"/>
<path d="M4213 6713 c-7 -3 -13 -8 -13 -13 0 -12 25 -19 39 -11 15 10 -8 31
-26 24z"/>
<path d="M4940 6705 c-10 -12 -9 -16 4 -21 9 -3 23 -3 32 0 13 5 14 9 4 21 -7
8 -16 15 -20 15 -4 0 -13 -7 -20 -15z"/>
<path d="M1774 6699 c-3 -6 -1 -16 5 -22 13 -13 42 0 49 21 5 15 -44 16 -54 1z"/>
<path d="M5330 6690 c0 -15 7 -20 25 -20 18 0 25 5 25 20 0 15 -7 20 -25 20
-18 0 -25 -5 -25 -20z"/>
<path d="M5442 6694 c-30 -20 -28 -52 3 -66 21 -10 28 -8 45 8 10 10 26 25 34
32 42 34 -35 59 -82 26z"/>
<path d="M2067 6686 c-10 -8 -20 -21 -21 -29 -1 -9 -13 -24 -26 -35 -24 -19
-21 -42 5 -42 15 0 42 40 28 40 -4 0 10 11 32 23 46 26 59 57 23 57 -13 0 -31
-7 -41 -14z"/>
<path d="M4283 6689 c-26 -9 -31 -38 -8 -40 8 -1 23 -2 33 -3 10 -1 18 7 20
20 4 25 -14 35 -45 23z"/>
<path d="M4753 6683 c-25 -9 -14 -33 15 -33 35 0 45 9 31 27 -12 13 -25 15
-46 6z"/>
<path d="M5182 6683 c-22 -8 -33 -40 -18 -52 11 -9 21 -5 47 19 18 16 31 31
29 31 -16 5 -47 5 -58 2z"/>
<path d="M1478 6666 c-16 -11 -26 -56 -13 -56 15 0 55 25 59 37 13 32 -15 43
-46 19z"/>
<path d="M1635 6662 c-29 -6 -38 -17 -31 -40 11 -34 65 -13 66 25 0 16 -11 20
-35 15z"/>
<path d="M4471 6661 c-18 -11 -3 -38 25 -44 16 -3 24 0 24 9 0 8 0 17 1 21 1
11 -37 22 -50 14z"/>
<path d="M3393 6653 c-18 -6 -16 -27 5 -46 38 -35 82 -6 48 32 -16 18 -30 21
-53 14z"/>
<path d="M5606 6651 c-10 -15 5 -44 38 -74 57 -52 76 -10 20 46 -39 38 -49 43
-58 28z"/>
<path d="M5912 6630 c4 -26 2 -29 -18 -24 -16 4 -25 0 -33 -14 -12 -22 0 -37
33 -43 14 -3 21 -14 24 -39 5 -47 17 -67 50 -82 15 -7 34 -28 43 -46 19 -41
37 -54 60 -41 19 10 81 -12 106 -37 25 -24 53 -35 73 -29 45 14 13 51 -65 75
-22 7 -44 19 -48 26 -9 16 -43 19 -52 4 -3 -5 -10 -10 -14 -10 -9 0 -31 45
-31 65 0 23 30 45 60 45 32 0 41 15 29 49 -8 19 -14 22 -37 17 -15 -4 -34 -8
-42 -9 -26 -5 -40 -17 -40 -38 0 -30 -30 -22 -41 11 -6 17 -17 30 -23 30 -7 0
-13 13 -14 29 -1 28 1 29 30 20 36 -10 48 -5 48 21 0 25 -37 50 -73 50 -27 0
-29 -3 -25 -30z"/>
<path d="M2148 6643 c-21 -5 -24 -43 -4 -43 28 0 46 12 46 31 0 19 -8 21 -42
12z"/>
<path d="M5292 6633 c2 -10 15 -24 30 -33 25 -13 29 -13 43 1 15 15 15 18 0
33 -23 22 -78 22 -73 -1z"/>
<path d="M5061 6631 c-19 -12 -6 -41 19 -41 25 0 38 29 19 41 -8 5 -16 9 -19
9 -3 0 -11 -4 -19 -9z"/>
<path d="M1380 6603 c-65 -51 -65 -57 -3 -66 30 -5 57 -6 60 -3 3 3 -1 16 -10
29 -10 15 -12 29 -6 38 23 37 5 38 -41 2z"/>
<path d="M2692 6608 c4 -30 43 -36 57 -10 13 24 5 32 -31 32 -25 0 -29 -4 -26
-22z"/>
<path d="M1701 6610 c-40 -6 -71 -29 -71 -52 0 -14 51 -29 74 -22 30 9 56 34
56 55 0 24 -8 26 -59 19z"/>
<path d="M4927 6604 c-8 -8 1 -24 13 -24 4 0 10 7 14 15 5 15 -14 21 -27 9z"/>
<path d="M1479 6568 c-7 -18 -26 -44 -41 -56 -31 -26 -36 -47 -13 -56 9 -3 30
8 53 28 28 25 42 31 57 25 32 -13 62 -10 79 7 20 20 14 31 -30 49 -19 8 -34
19 -34 24 0 6 -13 11 -29 11 -23 0 -31 -6 -42 -32z"/>
<path d="M5743 6589 c-17 -17 -1 -42 41 -68 76 -47 116 -9 47 46 -36 28 -73
37 -88 22z"/>
<path d="M4812 6578 c-18 -18 -15 -36 7 -43 23 -7 51 3 51 19 0 15 -20 36 -35
36 -6 0 -16 -5 -23 -12z"/>
<path d="M5530 6561 c0 -17 17 -30 47 -37 22 -4 26 16 7 37 -22 25 -54 25 -54
0z"/>
<path d="M2397 6563 c-23 -23 14 -94 51 -100 31 -4 39 33 13 61 -12 12 -21 28
-21 34 0 13 -32 17 -43 5z"/>
<path d="M4245 6560 c-8 -13 13 -40 28 -37 19 3 27 20 15 34 -13 16 -34 17
-43 3z"/>
<path d="M1990 6545 c-7 -9 -10 -18 -7 -21 11 -11 57 6 57 21 0 20 -34 19 -50
0z"/>
<path d="M2223 6529 c-29 -11 -30 -45 -2 -59 24 -13 49 2 49 30 0 26 -21 39
-47 29z"/>
<path d="M2876 6527 c-17 -12 -17 -15 -2 -29 9 -9 13 -23 10 -32 -3 -8 -3 -20
1 -26 10 -17 35 8 35 36 0 12 5 26 10 29 8 5 7 11 -1 21 -14 18 -30 18 -53 1z"/>
<path d="M1279 6517 c-23 -17 -39 -70 -27 -90 11 -21 40 -22 78 -2 34 17 40
52 13 62 -10 3 -25 14 -33 24 -12 14 -18 16 -31 6z"/>
<path d="M1783 6523 c-20 -7 -15 -33 6 -33 15 0 31 18 31 34 0 4 -24 3 -37 -1z"/>
<path d="M1834 6515 c-4 -8 -4 -22 0 -30 8 -21 56 2 56 27 0 23 -48 25 -56 3z"/>
<path d="M4900 6515 c-11 -13 -10 -18 6 -30 17 -12 21 -12 31 2 9 12 10 20 2
30 -15 17 -24 16 -39 -2z"/>
<path d="M5375 6510 c-8 -13 12 -50 39 -71 18 -15 82 -19 146 -10 2 1 -1 6 -7
12 -6 6 -31 13 -55 16 -32 3 -50 12 -69 34 -26 30 -43 36 -54 19z"/>
<path d="M2309 6489 c-7 -14 -5 -21 11 -29 26 -14 63 4 58 28 -5 24 -56 24
-69 1z"/>
<path d="M6160 6498 c0 -8 15 -26 33 -42 24 -22 28 -30 17 -34 -34 -11 -40
-23 -24 -47 10 -16 23 -22 40 -20 30 3 31 4 39 36 5 22 -1 33 -34 65 -51 48
-71 60 -71 42z"/>
<path d="M1909 6479 c-20 -20 -20 -22 -5 -31 12 -7 24 -5 42 6 28 19 31 31 8
40 -22 8 -22 8 -45 -15z"/>
<path d="M1533 6465 c-24 -10 -43 -32 -43 -50 0 -12 37 -12 75 1 32 12 45 21
45 35 0 10 -3 19 -7 20 -5 0 -15 2 -24 4 -8 1 -29 -3 -46 -10z"/>
<path d="M5680 6455 c0 -17 46 -42 57 -31 12 11 -12 41 -36 44 -14 2 -21 -2
-21 -13z"/>
<path d="M1718 6423 c-20 -5 -31 -30 -20 -49 7 -12 11 -12 30 2 12 8 22 24 22
35 0 19 -2 20 -32 12z"/>
<path d="M2968 6423 c-20 -5 -25 -42 -5 -44 22 -2 42 3 55 14 11 9 11 13 -4
24 -10 7 -20 12 -23 12 -3 -1 -14 -3 -23 -6z"/>
<path d="M4423 6414 c-6 -16 11 -34 33 -34 21 0 24 29 4 40 -25 13 -30 13 -37
-6z"/>
<path d="M5776 6422 c-16 -15 -3 -41 27 -53 112 -43 143 -42 107 4 -12 15 -30
32 -41 38 -23 12 -85 19 -93 11z"/>
<path d="M1184 6396 c-11 -8 -31 -16 -44 -18 -26 -3 -37 -32 -22 -56 20 -30
112 27 112 69 0 23 -18 24 -46 5z"/>
<path d="M1368 6384 c-17 -21 -36 -38 -77 -72 -34 -29 -36 -52 -4 -52 28 0
105 44 116 67 11 24 2 73 -13 73 -5 0 -15 -7 -22 -16z"/>
<path d="M5160 6390 c-13 -9 -11 -13 9 -31 21 -17 26 -18 39 -5 31 30 -10 61
-48 36z"/>
<path d="M1869 6367 c-22 -18 -32 -49 -17 -58 14 -9 65 18 73 39 11 31 -25 43
-56 19z"/>
<path d="M1567 6363 c-11 -10 -8 -20 8 -27 9 -3 19 3 25 14 9 17 7 20 -8 20
-10 0 -22 -3 -25 -7z"/>
<path d="M6330 6340 c0 -6 10 -21 23 -33 44 -45 60 -78 49 -102 -8 -18 -6 -30
8 -56 10 -19 24 -45 30 -59 7 -14 17 -36 24 -50 13 -28 56 -41 56 -16 0 8 -10
24 -21 35 -12 11 -23 32 -24 48 -9 85 -35 145 -84 194 -51 50 -61 57 -61 39z"/>
<path d="M5333 6314 c-7 -20 22 -45 43 -37 20 7 17 31 -5 43 -26 14 -31 13
-38 -6z"/>
<path d="M1156 6306 c-16 -7 -48 -34 -70 -60 -36 -40 -47 -46 -90 -50 -82 -7
-105 -59 -29 -69 44 -5 88 17 107 54 6 13 22 29 35 35 12 6 28 17 34 23 6 6
19 11 28 11 26 0 52 40 37 57 -12 15 -14 15 -52 -1z"/>
<path d="M1404 6302 c-19 -13 -25 -42 -10 -48 22 -8 56 14 56 36 0 20 -25 27
-46 12z"/>
<path d="M2032 6298 c-13 -13 -16 -38 -4 -39 4 0 15 -2 24 -4 22 -4 42 20 34
40 -7 18 -37 20 -54 3z"/>
<path d="M6123 6303 c-19 -7 -15 -31 6 -43 27 -14 41 -13 41 3 0 19 -32 45
-47 40z"/>
<path d="M4676 6283 c-9 -21 2 -33 29 -33 24 0 41 25 25 35 -22 14 -49 13 -54
-2z"/>
<path d="M6010 6283 c0 -22 18 -43 38 -43 9 0 12 9 10 28 -4 33 -48 47 -48 15z"/>
<path d="M6326 6291 c-3 -5 3 -20 14 -32 17 -20 21 -22 29 -9 7 10 5 20 -6 32
-18 20 -29 23 -37 9z"/>
<path d="M5916 6282 c-13 -22 36 -48 53 -28 7 9 7 16 -1 24 -14 14 -44 16 -52
4z"/>
<path d="M5800 6259 c0 -7 -12 -10 -30 -7 -39 6 -47 -16 -15 -48 32 -31 40
-30 59 8 20 39 20 58 1 58 -8 0 -15 -5 -15 -11z"/>
<path d="M1526 6221 c-22 -24 -11 -55 14 -41 24 13 32 36 16 49 -10 8 -17 6
-30 -8z"/>
<path d="M6237 6233 c-16 -16 -5 -51 23 -71 23 -18 30 -30 30 -57 0 -38 11
-49 39 -40 15 4 19 13 16 36 -3 17 -10 38 -16 45 -7 8 -9 17 -6 20 11 12 -15
62 -36 68 -29 8 -42 7 -50 -1z"/>
<path d="M6115 6210 c-8 -27 1 -40 30 -40 25 0 38 21 29 45 -9 22 -51 19 -59
-5z"/>
<path d="M5211 6210 c-31 -7 -57 -72 -36 -90 10 -9 16 -5 27 17 8 15 20 27 26
25 16 -3 26 23 15 41 -5 8 -17 11 -32 7z"/>
<path d="M1726 6194 c-13 -13 -14 -19 -5 -30 10 -13 15 -13 33 -1 12 8 21 21
21 28 0 20 -30 22 -49 3z"/>
<path d="M2440 6196 c-6 -6 -6 -14 1 -23 13 -15 49 0 49 22 0 15 -35 16 -50 1z"/>
<path d="M5924 6175 c-8 -20 4 -35 27 -35 21 0 25 20 7 38 -16 16 -27 15 -34
-3z"/>
<path d="M1892 6164 c-18 -12 -21 -19 -11 -30 25 -30 69 -2 46 30 -11 15 -14
15 -35 0z"/>
<path d="M1157 6161 c-27 -4 -53 -14 -58 -22 -31 -49 37 -65 106 -24 48 28 60
56 23 54 -13 -1 -45 -5 -71 -8z"/>
<path d="M1315 6146 c-11 -8 -16 -19 -12 -30 9 -22 22 -20 47 6 15 16 17 24 8
30 -18 11 -21 10 -43 -6z"/>
<path d="M1520 6140 c-7 -13 -5 -22 6 -31 20 -16 49 0 49 27 0 25 -42 28 -55
4z"/>
<path d="M5673 6153 c-19 -7 -16 -31 5 -41 25 -12 47 -9 47 7 0 17 -36 40 -52
34z"/>
<path d="M1811 6136 c-16 -20 -3 -48 17 -37 8 5 17 16 18 24 3 21 -22 29 -35
13z"/>
<path d="M1386 6124 c-9 -22 -7 -52 2 -58 14 -8 52 32 52 54 0 25 -45 28 -54
4z"/>
<path d="M5594 6105 c-7 -18 13 -45 33 -45 19 0 28 27 13 45 -16 19 -39 19
-46 0z"/>
<path d="M6540 6106 c0 -7 7 -19 15 -26 8 -7 15 -18 15 -24 0 -6 5 -28 11 -48
9 -34 13 -38 44 -38 25 0 35 -5 40 -20 3 -11 13 -20 21 -20 17 0 18 7 2 25 -7
8 -18 20 -24 27 -6 7 -21 20 -33 28 -11 8 -21 20 -21 28 0 16 -49 82 -61 82
-5 0 -9 -6 -9 -14z"/>
<path d="M6098 6085 c-16 -13 -28 -29 -28 -34 0 -20 49 -24 75 -7 27 18 32 35
13 54 -17 17 -29 15 -60 -13z"/>
<path d="M3424 5836 c-146 -146 -271 -267 -278 -267 -6 -1 -176 -2 -378 -3
-355 -1 -368 -2 -382 -21 -13 -17 -15 -76 -16 -391 l0 -372 -265 -266 c-188
-188 -265 -272 -265 -288 0 -16 77 -99 265 -288 l265 -265 0 -373 c0 -359 1
-373 20 -392 19 -19 33 -20 392 -20 l373 0 265 -265 c192 -191 272 -265 289
-265 16 0 97 74 288 265 l266 265 373 0 c364 0 375 1 392 20 15 19 17 55 18
388 1 202 2 370 3 373 1 4 120 126 265 271 197 197 265 271 263 288 -1 13 -97
117 -267 288 l-265 267 1 369 c0 335 -1 370 -17 390 -17 21 -22 21 -393 22
l-375 1 -239 239 c-132 131 -250 249 -263 260 -56 50 -47 57 -335 -230z m530
-267 l220 -219 318 0 318 0 10 -26 c6 -14 10 -156 10 -328 l0 -303 219 -218
c121 -121 222 -228 225 -239 4 -16 -41 -67 -219 -246 l-225 -226 0 -316 c0
-269 -2 -317 -15 -328 -11 -9 -95 -13 -330 -14 l-314 -1 -224 -222 c-123 -123
-230 -223 -239 -223 -8 0 -116 100 -238 223 l-222 222 -315 1 c-271 1 -317 3
-330 17 -14 13 -16 60 -17 330 l-1 315 -217 217 c-119 119 -220 226 -224 237
-5 17 34 61 219 247 l225 226 -1 312 c0 238 3 316 13 328 11 13 57 15 328 15
l316 0 226 225 c176 175 230 223 245 219 11 -3 119 -104 239 -225z"/>
<path d="M3493 5440 c-143 -143 -207 -200 -224 -201 -13 -1 -139 -1 -279 -1
-193 0 -260 -3 -273 -13 -16 -12 -18 -36 -17 -295 l0 -282 -200 -201 c-115
-115 -200 -209 -200 -219 0 -11 85 -104 199 -219 l200 -199 0 -282 c1 -193 4
-285 12 -294 9 -11 68 -14 295 -14 l283 0 201 -200 c114 -114 207 -200 218
-200 10 0 105 86 219 200 l201 200 284 0 c248 -1 284 1 294 15 9 12 12 92 12
273 0 141 0 268 1 281 1 16 58 81 196 218 107 107 197 204 201 215 5 17 -30
57 -196 223 l-203 203 0 280 c0 154 -4 286 -8 294 -7 10 -68 13 -295 14 l-286
1 -197 196 c-108 107 -205 198 -217 201 -17 5 -57 -31 -221 -194z m399 -197
l168 -168 239 0 c132 0 243 -4 248 -8 4 -5 8 -116 8 -248 l0 -239 168 -168
c92 -92 167 -174 167 -182 0 -9 -75 -91 -168 -183 l-167 -168 0 -236 c0 -169
-3 -240 -11 -248 -9 -8 -81 -12 -249 -12 l-237 0 -174 -173 -174 -173 -22 19
c-12 10 -92 89 -178 174 l-155 155 -233 -1 c-182 -1 -236 1 -246 12 -11 10
-13 64 -12 246 l1 233 -161 161 c-89 89 -166 170 -172 180 -10 17 11 41 160
190 l171 172 -1 238 c0 195 3 241 15 249 9 7 101 10 248 10 l235 0 167 167
c92 93 175 168 183 168 8 0 90 -75 182 -167z"/>
<path d="M4250 5027 c0 -2 20 -47 44 -98 80 -173 106 -338 83 -519 -18 -133
-87 -315 -152 -397 -5 -7 -23 -30 -40 -52 -16 -22 -32 -40 -35 -41 -3 0 -5 51
-4 113 0 61 -3 119 -7 128 -6 12 -23 16 -69 16 -33 0 -63 3 -68 8 -4 4 -1 5 7
0 12 -7 13 0 8 39 -14 103 -90 183 -194 204 -33 7 -38 12 -41 40 -2 18 1 32 8
32 15 0 30 44 23 69 -7 29 -20 26 -20 -4 0 -32 -20 -55 -47 -55 -19 -1 -19 -2
-3 -11 9 -6 17 -22 17 -37 0 -23 -5 -28 -26 -30 -35 -3 -104 -35 -132 -61 -37
-36 -69 -94 -77 -139 -7 -43 -3 -48 35 -42 8 1 12 -1 8 -6 -4 -4 -44 -7 -87
-7 -49 0 -82 -5 -84 -11 -1 -6 -3 -125 -2 -263 l1 -253 -32 0 -32 0 -4 143
c-2 89 0 145 7 149 10 7 7 9 -16 12 -7 1 -10 46 -10 131 0 85 -4 135 -12 144
-8 10 -8 13 -1 8 6 -4 19 2 28 12 16 18 7 39 -11 28 -5 -3 -8 23 -8 56 0 46 4
66 18 78 15 15 15 18 2 29 -8 7 -15 19 -15 26 0 8 -13 22 -29 32 -15 9 -28 20
-29 25 0 4 -2 11 -5 15 -2 4 -2 2 -1 -5 2 -7 -10 -22 -26 -33 -17 -12 -30 -30
-30 -41 0 -10 -7 -19 -15 -19 -19 0 -19 -10 1 -24 19 -15 27 -147 8 -139 -19
7 -24 -10 -9 -30 7 -10 16 -18 19 -18 16 2 18 0 8 -11 -5 -8 -9 -67 -8 -139 1
-99 -2 -125 -12 -122 -8 4 -12 -4 -10 -23 1 -16 1 -82 0 -146 -2 -101 -4 -118
-18 -118 -25 0 -174 78 -231 121 -29 22 -53 37 -53 35 0 -10 105 -131 139
-161 19 -16 40 -35 46 -42 28 -27 155 -103 220 -130 121 -51 206 -68 350 -68
208 0 324 31 487 129 368 223 530 663 396 1076 -26 80 -75 180 -120 241 -32
45 -138 164 -138 156z m-980 -719 c0 -11 -7 -16 -20 -15 -22 1 -27 26 -8 45
14 14 28 -1 28 -30z m337 -124 c-3 -3 -12 -4 -19 -1 -8 3 -5 6 6 6 11 1 17 -2
13 -5z m143 2 c0 -3 -4 -8 -10 -11 -5 -3 -10 -1 -10 4 0 6 5 11 10 11 6 0 10
-2 10 -4z m49 -6 c-6 -5 -18 -6 -26 -3 -19 8 -16 11 13 11 17 0 22 -3 13 -8z
m71 6 c0 -3 -4 -8 -10 -11 -5 -3 -10 -1 -10 4 0 6 5 11 10 11 6 0 10 -2 10 -4z
m44 -8 c-3 -4 -11 -5 -19 -1 -21 7 -19 12 4 10 11 0 18 -5 15 -9z m36 8 c0 -3
-4 -8 -10 -11 -5 -3 -10 -1 -10 4 0 6 5 11 10 11 6 0 10 -2 10 -4z m40 0 c0
-2 -7 -7 -16 -10 -8 -3 -12 -2 -9 4 6 10 25 14 25 6z m-161 -262 c6 -13 15
-24 20 -24 14 0 11 -201 -3 -206 -6 -2 -24 -9 -41 -15 -26 -10 -72 -14 -111
-10 -8 1 -11 36 -10 109 1 87 5 113 21 139 35 57 99 60 124 7z m-217 -39 c7
-9 19 -22 26 -30 7 -8 12 -45 12 -98 0 -59 -4 -86 -12 -89 -11 -3 -100 -2
-118 1 -3 1 -5 39 -5 85 0 78 2 87 28 115 30 34 50 39 69 16z m388 -16 c24
-27 32 -62 18 -74 -11 -9 -118 -75 -123 -75 -3 0 -5 29 -5 65 0 36 4 65 9 65
5 0 12 9 16 19 5 17 19 26 48 30 4 0 21 -13 37 -30z"/>
<path d="M3745 4566 c-12 -9 -15 -15 -7 -16 7 0 10 -4 7 -10 -3 -5 3 -10 13
-10 11 0 22 9 25 20 3 11 1 18 -3 15 -5 -3 -10 0 -12 5 -2 7 -11 5 -23 -4z"/>
<path d="M6214 6078 c-10 -15 32 -48 62 -48 30 0 31 24 2 44 -27 19 -54 21
-64 4z"/>
<path d="M6395 6080 c-4 -7 -1 -16 6 -21 17 -10 26 8 11 23 -6 6 -12 6 -17 -2z"/>
<path d="M5191 6066 c-14 -17 10 -39 35 -34 27 5 27 23 0 36 -19 8 -27 8 -35
-2z"/>
<path d="M821 6030 c-9 -26 -7 -34 9 -50 25 -25 46 -17 54 21 8 40 -2 59 -29
59 -17 0 -26 -8 -34 -30z"/>
<path d="M932 6028 c-16 -16 -15 -38 1 -39 36 -4 57 11 57 39 0 15 -42 16 -58
0z"/>
<path d="M5617 6033 c-4 -3 -7 -12 -7 -20 0 -17 26 -17 33 1 8 21 -11 35 -26
19z"/>
<path d="M1128 6018 c-8 -7 -18 -21 -21 -31 -10 -28 21 -33 48 -7 36 34 12 69
-27 38z"/>
<path d="M1008 5993 c-25 -27 -32 -67 -15 -81 20 -17 44 -5 56 28 19 57 -7 91
-41 53z"/>
<path d="M5813 6003 c-17 -6 -16 -18 3 -37 18 -19 34 -13 34 14 0 19 -17 30
-37 23z"/>
<path d="M6383 5993 c-7 -2 -13 -14 -13 -24 0 -25 59 -53 78 -37 20 17 14 44
-13 56 -28 13 -33 13 -52 5z"/>
<path d="M1186 5975 c-30 -30 -13 -81 18 -56 20 17 26 49 11 61 -9 8 -17 6
-29 -5z"/>
<path d="M1400 5965 c-14 -17 -6 -45 13 -45 19 0 50 36 42 49 -9 16 -41 13
-55 -4z"/>
<path d="M6233 5973 c-22 -8 -14 -30 19 -58 27 -23 33 -24 46 -12 8 8 11 20 8
26 -12 19 -61 48 -73 44z"/>
<path d="M6563 5963 c-22 -8 -14 -32 13 -39 25 -6 49 10 38 27 -5 9 -37 17
-51 12z"/>
<path d="M6312 5949 c2 -6 8 -10 13 -10 5 0 11 4 13 10 2 6 -4 11 -13 11 -9 0
-15 -5 -13 -11z"/>
<path d="M6099 5934 c-10 -13 -10 -17 2 -25 31 -19 54 -6 38 22 -12 23 -22 24
-40 3z"/>
<path d="M716 5908 c-18 -23 -22 -35 -13 -40 15 -9 57 30 57 54 0 27 -15 22
-44 -14z"/>
<path d="M6517 5934 c-8 -8 1 -24 14 -24 5 0 9 7 9 15 0 15 -12 20 -23 9z"/>
<path d="M778 5913 c-8 -10 -18 -24 -22 -31 -9 -15 10 -42 30 -42 15 0 54 56
54 78 0 18 -45 15 -62 -5z"/>
<path d="M1216 5908 c-20 -29 -20 -35 3 -47 15 -8 24 -5 44 15 14 14 23 32 20
40 -8 22 -50 17 -67 -8z"/>
<path d="M5637 5919 c-25 -14 -21 -44 9 -68 31 -25 44 -20 44 18 0 36 -28 63
-53 50z"/>
<path d="M6036 5894 c-8 -21 11 -44 35 -44 13 0 19 7 19 24 0 34 -43 50 -54
20z"/>
<path d="M1758 5889 c-19 -10 -14 -39 7 -39 7 0 18 6 24 14 16 19 -8 38 -31
25z"/>
<path d="M6535 5866 c-16 -11 -16 -14 6 -39 37 -42 99 -46 99 -6 0 31 -78 65
-105 45z"/>
<path d="M1456 5857 c-23 -17 -17 -51 10 -55 12 -2 26 -14 32 -28 13 -28 24
-30 46 -8 22 22 20 33 -8 44 -14 5 -26 19 -28 32 -4 27 -26 34 -52 15z"/>
<path d="M6678 5843 c-16 -42 -11 -73 17 -99 14 -13 25 -32 25 -44 0 -12 7
-35 17 -53 9 -18 16 -46 15 -64 -1 -24 6 -38 29 -57 33 -28 44 -31 54 -16 4 6
16 8 28 4 12 -4 30 -7 39 -6 9 0 24 -10 33 -24 36 -56 49 -6 14 56 -30 53 -64
67 -99 42 -39 -29 -60 -13 -60 44 0 43 -13 83 -32 95 -5 3 -10 31 -11 61 -4
83 -45 119 -69 61z"/>
<path d="M965 5830 c-17 -19 -20 -50 -5 -50 24 0 20 -31 -6 -53 -18 -16 -25
-29 -21 -41 5 -14 11 -15 27 -6 11 6 20 15 20 20 0 5 16 25 35 44 34 34 35 37
22 68 -15 37 -47 46 -72 18z"/>
<path d="M6473 5834 c-8 -21 17 -68 39 -72 19 -4 29 29 16 51 -5 9 -18 22 -29
27 -15 9 -21 7 -26 -6z"/>
<path d="M1238 5819 c-23 -13 -23 -39 0 -39 24 0 42 19 35 36 -6 16 -12 17
-35 3z"/>
<path d="M754 5808 c-24 -11 -48 -54 -39 -69 18 -29 95 14 95 53 0 12 -23 31
-33 27 -1 0 -12 -5 -23 -11z"/>
<path d="M6243 5813 c-19 -7 -16 -21 8 -33 31 -17 53 -6 39 20 -11 20 -23 23
-47 13z"/>
<path d="M6372 5778 c-5 -7 -12 -22 -14 -33 -2 -11 -11 -20 -20 -20 -30 0 -41
-20 -23 -39 20 -20 39 -20 55 -1 7 8 9 15 5 15 -4 0 -2 7 5 15 7 9 19 14 26
11 18 -7 25 34 9 50 -17 17 -30 18 -43 2z"/>
<path d="M6796 5782 c-7 -12 13 -52 26 -52 12 0 9 24 -5 45 -9 12 -16 14 -21
7z"/>
<path d="M873 5772 c-25 -4 -40 -39 -25 -54 14 -14 62 16 62 37 0 18 -9 22
-37 17z"/>
<path d="M623 5763 c-15 -5 -17 -39 -4 -47 18 -11 41 6 41 30 0 23 -11 28 -37
17z"/>
<path d="M1152 5758 c-19 -19 -15 -48 7 -48 18 0 51 34 51 52 0 13 -45 9 -58
-4z"/>
<path d="M6045 5740 c-3 -6 1 -13 10 -16 19 -8 30 0 20 15 -8 14 -22 14 -30 1z"/>
<path d="M6617 5733 c-11 -11 -7 -37 8 -58 14 -18 16 -18 32 -2 14 13 14 21 5
42 -11 24 -31 32 -45 18z"/>
<path d="M580 5683 c-19 -4 -92 -131 -88 -152 2 -11 11 -8 38 15 19 16 47 36
62 43 54 27 44 107 -12 94z"/>
<path d="M720 5646 c-28 -59 -25 -80 10 -63 25 13 45 45 52 82 2 14 -3 21 -18
23 -17 2 -26 -7 -44 -42z"/>
<path d="M6474 5675 c-9 -23 8 -50 32 -50 27 0 24 34 -3 52 -21 14 -23 14 -29
-2z"/>
<path d="M6060 5651 c0 -20 13 -41 25 -41 21 0 28 19 15 35 -14 17 -40 20 -40
6z"/>
<path d="M6876 5651 c-3 -5 3 -20 14 -32 20 -25 24 -20 14 19 -7 23 -19 29
-28 13z"/>
<path d="M820 5643 c-21 -7 -40 -34 -40 -55 0 -26 25 -22 38 7 6 14 16 25 21
25 5 0 11 7 15 15 5 15 -6 18 -34 8z"/>
<path d="M6592 5624 c-18 -19 -15 -44 11 -88 41 -73 68 -48 42 39 -16 56 -32
71 -53 49z"/>
<path d="M875 5620 c-11 -17 5 -49 21 -43 19 7 19 53 0 53 -8 0 -18 -5 -21
-10z"/>
<path d="M625 5596 c-13 -19 -14 -29 -6 -45 6 -11 10 -35 9 -53 -3 -30 0 -33
25 -36 58 -7 92 63 43 86 -18 8 -23 16 -19 32 4 13 0 26 -8 31 -21 13 -27 11
-44 -15z"/>
<path d="M1223 5553 c-18 -7 -16 -42 2 -49 24 -10 47 14 34 37 -10 19 -15 21
-36 12z"/>
<path d="M898 5533 c-7 -26 1 -43 20 -43 20 0 46 36 37 50 -11 17 -52 11 -57
-7z"/>
<path d="M6395 5540 c-3 -5 -1 -19 6 -31 10 -19 13 -20 20 -6 16 27 -10 64
-26 37z"/>
<path d="M6463 5525 c-6 -18 25 -45 44 -38 18 7 16 40 -3 47 -25 9 -34 7 -41
-9z"/>
<path d="M977 5513 c-12 -12 -7 -41 7 -46 19 -7 40 18 32 38 -6 15 -28 20 -39
8z"/>
<path d="M442 5470 c-13 -24 -18 -41 -12 -45 15 -9 27 1 38 34 16 46 -1 53
-26 11z"/>
<path d="M516 5473 c-26 -26 -35 -63 -16 -63 16 0 60 47 60 64 0 26 -17 26
-44 -1z"/>
<path d="M1031 5466 c-19 -23 -10 -71 13 -71 26 0 40 26 32 58 -7 30 -27 35
-45 13z"/>
<path d="M762 5457 c-18 -21 -19 -71 -2 -74 25 -5 40 12 47 50 5 32 3 37 -14
37 -12 0 -25 -6 -31 -13z"/>
<path d="M6531 5456 c-10 -11 -8 -17 11 -30 34 -24 50 -20 46 12 -3 31 -37 42
-57 18z"/>
<path d="M6982 5458 c-27 -27 0 -77 34 -64 11 4 13 13 9 28 -11 36 -28 51 -43
36z"/>
<path d="M5977 5452 c-25 -5 -17 -36 11 -40 16 -3 22 2 22 17 0 23 -8 29 -33
23z"/>
<path d="M6337 5446 c-5 -13 21 -46 35 -46 10 0 18 29 12 45 -8 19 -40 20 -47
1z"/>
<path d="M6892 5451 c-18 -11 -10 -78 12 -99 20 -20 35 -7 42 36 9 53 -19 85
-54 63z"/>
<path d="M567 5443 c-4 -10 -2 -23 8 -47 5 -11 4 -30 -2 -45 -8 -23 -10 -70
-4 -118 2 -23 28 -2 44 35 21 48 23 71 8 106 -6 15 -11 33 -10 40 3 26 -2 36
-20 36 -11 0 -22 -3 -24 -7z"/>
<path d="M6775 5403 c4 -21 8 -47 10 -58 5 -39 35 -95 50 -95 25 0 29 30 10
62 -11 19 -15 40 -11 59 6 32 -20 69 -50 69 -13 0 -15 -7 -9 -37z"/>
<path d="M6100 5410 c-13 -8 -12 -12 7 -31 12 -13 28 -19 37 -16 20 8 20 21 0
41 -18 18 -23 19 -44 6z"/>
<path d="M6711 5391 c-11 -7 -9 -13 8 -30 24 -24 41 -27 41 -7 0 40 -20 55
-49 37z"/>
<path d="M370 5330 c-11 -22 -18 -40 -14 -40 4 0 1 -6 -5 -14 -18 -21 7 -26
53 -10 49 18 45 18 56 -11 11 -28 31 -32 50 -10 20 24 8 50 -22 47 -22 -2 -27
2 -32 32 -6 33 -21 46 -52 46 -7 0 -23 -18 -34 -40z"/>
<path d="M6955 5340 c-3 -11 -12 -20 -20 -20 -27 0 -34 -72 -10 -104 24 -32
18 -56 -15 -69 -17 -6 -33 -20 -36 -30 -4 -14 -12 -16 -40 -11 -30 6 -34 4
-28 -12 4 -11 18 -31 32 -46 14 -16 21 -28 15 -28 -16 0 -22 -35 -8 -53 26
-36 56 -7 35 33 -10 18 -9 24 1 31 8 5 14 13 14 18 0 12 29 39 67 64 23 14 27
23 23 50 -15 98 -14 105 12 131 20 20 23 28 13 45 -14 27 -47 27 -55 1z"/>
<path d="M722 5341 c-20 -12 -21 -56 -1 -82 17 -22 19 -23 35 -7 31 31 1 111
-34 89z"/>
<path d="M6579 5324 c-13 -15 -1 -42 23 -55 31 -17 56 11 40 45 -12 26 -45 32
-63 10z"/>
<path d="M7043 5302 c-6 -4 -17 -20 -23 -36 -8 -23 -7 -34 8 -60 19 -33 59
-47 73 -24 12 17 2 77 -17 105 -16 25 -22 27 -41 15z"/>
<path d="M902 5284 c-29 -20 -30 -57 -1 -52 24 3 42 38 30 56 -5 9 -13 7 -29
-4z"/>
<path d="M6746 5293 c-12 -12 -6 -41 11 -47 21 -8 36 6 28 27 -7 17 -30 29
-39 20z"/>
<path d="M6451 5241 c-10 -7 -11 -13 -2 -30 17 -31 43 -27 39 6 -3 29 -16 37
-37 24z"/>
<path d="M527 5202 c-22 -24 -21 -31 6 -60 15 -18 17 -23 6 -20 -30 11 -44 -9
-42 -61 2 -41 -3 -56 -22 -80 -31 -36 -32 -59 -2 -70 23 -10 61 7 63 28 1 6 2
14 3 19 2 4 2 40 2 80 0 53 3 72 12 69 21 -7 47 13 47 36 0 13 -13 35 -28 50
-28 27 -29 27 -45 9z"/>
<path d="M1066 5202 c-7 -20 1 -52 13 -52 16 1 31 18 33 40 4 32 -37 42 -46
12z"/>
<path d="M346 5187 c-9 -7 -20 -26 -24 -42 -5 -18 -16 -31 -28 -34 -23 -4 -34
-19 -34 -48 0 -32 34 -30 48 2 6 13 22 27 36 31 16 4 32 21 45 47 11 22 19 42
17 44 -10 10 -46 10 -60 0z"/>
<path d="M6713 5193 c-21 -8 -15 -30 14 -53 30 -23 49 -14 38 19 -7 24 -34 41
-52 34z"/>
<path d="M6329 5183 c0 -5 -2 -16 -4 -26 -2 -9 5 -22 15 -27 27 -15 47 22 24
44 -16 17 -33 21 -35 9z"/>
<path d="M6524 5145 c-7 -18 3 -35 21 -35 18 0 28 32 13 42 -19 11 -28 10 -34
-7z"/>
<path d="M707 5143 c-10 -9 -8 -41 2 -47 18 -11 41 6 41 30 0 17 -6 24 -18 24
-10 0 -22 -3 -25 -7z"/>
<path d="M7055 5140 c-10 -17 4 -47 25 -53 22 -6 31 12 23 42 -6 22 -37 29
-48 11z"/>
<path d="M7125 5141 c-3 -6 -1 -20 5 -31 7 -14 8 -31 1 -56 -14 -52 1 -83 42
-84 23 0 22 57 -1 124 -17 49 -34 67 -47 47z"/>
<path d="M389 5119 c-14 -28 3 -48 26 -29 19 16 19 36 0 44 -9 3 -19 -3 -26
-15z"/>
<path d="M6670 5041 c0 -28 24 -45 39 -27 15 18 3 46 -20 46 -12 0 -19 -7 -19
-19z"/>
<path d="M6320 5035 c-16 -19 -7 -41 20 -48 25 -6 38 17 23 41 -14 23 -28 25
-43 7z"/>
<path d="M7002 5038 c-32 -32 1 -104 36 -81 10 5 17 14 17 19 0 5 3 14 6 19 4
6 3 20 -2 33 -9 24 -38 29 -57 10z"/>
<path d="M911 4996 c-10 -12 -8 -17 7 -25 22 -12 32 -6 32 21 0 21 -23 24 -39
4z"/>
<path d="M642 4983 c-13 -25 -4 -42 18 -36 18 5 33 37 22 47 -11 12 -32 6 -40
-11z"/>
<path d="M837 4993 c-10 -9 -8 -41 2 -48 5 -3 17 2 26 11 12 12 13 19 4 30
-13 15 -22 18 -32 7z"/>
<path d="M294 4982 c-10 -6 -35 -55 -47 -93 -12 -37 15 -36 54 3 30 30 39 46
37 66 -3 27 -24 38 -44 24z"/>
<path d="M6436 4981 c-3 -5 1 -14 8 -20 16 -13 32 2 21 19 -8 12 -22 13 -29 1z"/>
<path d="M6501 4946 c-12 -15 13 -56 33 -56 17 0 27 25 20 44 -7 19 -41 27
-53 12z"/>
<path d="M203 4928 c-5 -13 -8 -29 -6 -36 8 -21 33 6 33 34 0 30 -14 31 -27 2z"/>
<path d="M367 4928 c-21 -11 -22 -32 -1 -49 14 -11 18 -10 30 6 26 35 7 64
-29 43z"/>
<path d="M597 4932 c-23 -5 -19 -41 6 -56 14 -8 20 -8 27 4 13 20 12 23 -2 41
-7 9 -21 14 -31 11z"/>
<path d="M6807 4922 c-17 -19 -7 -52 17 -52 19 0 26 33 11 53 -11 16 -13 16
-28 -1z"/>
<path d="M6887 4917 c-3 -8 0 -21 8 -27 19 -15 27 3 11 25 -11 16 -14 16 -19
2z"/>
<path d="M6947 4903 c-20 -20 4 -66 29 -56 17 6 18 35 2 51 -14 14 -22 15 -31
5z"/>
<path d="M7089 4903 c-34 -9 -28 -84 7 -97 30 -11 50 60 28 96 -5 8 -8 8 -35
1z"/>
<path d="M6745 4890 c-9 -15 4 -67 21 -81 17 -14 22 -10 27 22 8 46 -29 90
-48 59z"/>
<path d="M7166 4861 c-19 -21 -21 -37 -13 -111 2 -25 1 -54 -3 -65 -5 -13 -3
-28 6 -40 8 -10 14 -25 14 -33 0 -8 17 -32 38 -52 20 -20 45 -49 55 -63 10
-15 22 -25 28 -22 12 8 12 4 -6 -39 -14 -34 -14 -140 0 -155 3 -2 -5 -15 -17
-28 l-22 -23 20 -47 c39 -94 65 -55 58 87 -4 89 -3 93 21 116 28 25 34 71 11
80 -11 4 -13 12 -6 29 9 24 -4 90 -20 100 -5 3 -17 -8 -26 -25 l-18 -30 -28
44 c-16 24 -32 61 -35 81 -3 21 -16 48 -27 59 l-21 21 38 9 c49 13 49 45 -2
109 -18 22 -24 21 -45 -2z"/>
<path d="M193 4858 c-20 -26 -23 -49 -7 -55 19 -7 55 34 47 54 -6 16 -28 17
-40 1z"/>
<path d="M634 4855 c-9 -22 22 -53 37 -38 15 15 7 47 -14 51 -9 2 -20 -4 -23
-13z"/>
<path d="M6666 4854 c-7 -19 10 -44 31 -44 19 0 28 27 13 45 -16 20 -36 19
-44 -1z"/>
<path d="M427 4842 c-9 -10 -17 -26 -17 -35 0 -23 -13 -28 -46 -18 -36 10
-133 -31 -135 -57 -4 -51 -7 -65 -16 -71 -20 -13 -33 -51 -27 -77 4 -15 7 -41
8 -58 1 -32 5 -36 32 -36 14 0 15 9 9 64 l-6 64 45 36 c25 21 46 47 48 59 4
27 35 34 52 11 14 -18 36 -12 36 11 0 8 14 30 31 49 30 34 35 66 13 73 -6 2
-18 -5 -27 -15z"/>
<path d="M7250 4841 c0 -5 5 -13 10 -16 6 -3 10 -2 10 4 0 5 -4 13 -10 16 -5
3 -10 2 -10 -4z"/>
<path d="M7031 4797 c-8 -10 -7 -19 3 -32 12 -16 16 -17 30 -6 12 10 13 18 5
32 -12 22 -22 24 -38 6z"/>
<path d="M6954 4793 c-17 -6 -6 -41 28 -91 22 -31 35 -42 51 -40 33 5 31 24
-7 59 -20 18 -36 38 -36 44 0 17 -22 33 -36 28z"/>
<path d="M512 4768 c-14 -14 -16 -45 -3 -53 10 -5 41 21 41 34 0 18 -26 31
-38 19z"/>
<path d="M972 4763 c-12 -24 -4 -43 18 -43 17 0 34 35 24 52 -9 14 -33 9 -42
-9z"/>
<path d="M7262 4752 c-15 -10 -33 -68 -26 -87 3 -7 15 -16 27 -19 28 -7 50 20
42 54 -3 14 -7 32 -9 39 -4 18 -17 23 -34 13z"/>
<path d="M131 4688 c-17 -57 -23 -98 -14 -98 28 0 73 78 65 113 -6 30 -39 20
-51 -15z"/>
<path d="M6676 4702 c-4 -7 -20 -12 -36 -12 -32 0 -44 -20 -26 -45 10 -14 21
-16 53 -10 23 3 44 13 47 20 7 19 -28 62 -38 47z"/>
<path d="M6856 4701 c-10 -15 5 -41 23 -41 25 0 32 10 20 31 -10 20 -34 25
-43 10z"/>
<path d="M480 4661 c0 -27 15 -34 31 -15 10 13 10 17 -2 25 -22 13 -29 11 -29
-10z"/>
<path d="M556 4665 c-17 -13 -17 -45 1 -45 23 1 36 19 27 39 -8 17 -11 18 -28
6z"/>
<path d="M6789 4658 c-4 -47 11 -75 50 -89 38 -15 45 4 17 46 -14 21 -26 42
-26 46 0 14 -40 10 -41 -3z"/>
<path d="M943 4653 c-16 -6 -17 -29 -2 -39 12 -7 29 12 29 34 0 13 -6 14 -27
5z"/>
<path d="M6471 4647 c-8 -10 -7 -18 2 -31 12 -16 14 -16 26 -2 14 16 9 46 -7
46 -5 0 -15 -6 -21 -13z"/>
<path d="M385 4617 c-10 -8 -15 -18 -12 -23 3 -6 2 -16 -2 -23 -7 -10 -14 -9
-36 5 -26 17 -28 17 -41 0 -15 -22 -8 -46 15 -46 9 0 22 -9 29 -20 17 -28 31
-25 44 11 6 18 16 28 23 25 27 -10 54 47 33 71 -13 17 -29 16 -53 0z"/>
<path d="M7105 4600 c-4 -7 -17 -9 -30 -6 -26 7 -48 -14 -39 -37 9 -24 33 -28
46 -8 11 18 13 17 36 -8 36 -39 51 -73 50 -118 0 -51 9 -80 33 -104 26 -26 16
-40 -21 -32 -18 3 -30 1 -30 -5 0 -5 -9 -12 -20 -15 -23 -6 -28 -48 -7 -66 15
-12 37 3 37 26 0 12 18 18 47 14 7 -1 21 3 32 8 21 12 19 26 -14 126 -10 28
-16 67 -16 87 1 26 -5 44 -19 58 -12 12 -29 35 -38 52 -20 35 -37 45 -47 28z"/>
<path d="M490 4565 c-15 -19 -6 -44 14 -41 24 3 39 23 33 40 -8 20 -31 21 -47
1z"/>
<path d="M6907 4543 c-13 -12 -7 -51 8 -57 20 -7 36 24 24 47 -10 18 -21 21
-32 10z"/>
<path d="M125 4519 c-11 -16 -8 -80 3 -91 16 -16 42 -1 44 24 2 40 -2 62 -15
70 -16 11 -25 10 -32 -3z"/>
<path d="M6483 4514 c-7 -20 11 -38 31 -31 9 4 12 13 9 26 -6 25 -31 28 -40 5z"/>
<path d="M895 4510 c-9 -15 3 -47 20 -54 21 -8 40 31 24 50 -13 16 -35 18 -44
4z"/>
<path d="M277 4465 c-22 -16 -21 -33 4 -75 12 -19 22 -46 23 -60 1 -18 6 -25
19 -23 10 0 16 -1 13 -4 -3 -3 0 -15 6 -26 11 -21 11 -21 29 2 22 26 10 65
-16 54 -13 -4 -15 5 -14 54 1 33 -1 65 -4 70 -11 17 -42 21 -60 8z"/>
<path d="M7043 4466 c-13 -6 -23 -14 -23 -18 0 -4 -11 -3 -24 2 -18 6 -28 5
-36 -5 -27 -33 13 -80 49 -58 15 10 21 10 25 0 3 -8 9 -7 19 6 19 23 44 22 52
-3 6 -19 39 -28 49 -12 6 10 -18 65 -38 85 -19 19 -40 20 -73 3z"/>
<path d="M666 4455 c-6 -16 2 -45 13 -45 13 0 31 24 31 42 0 22 -35 25 -44 3z"/>
<path d="M73 4424 c-6 -10 -14 -45 -18 -77 -6 -57 -6 -58 14 -45 34 21 50 92
28 123 -14 18 -15 18 -24 -1z"/>
<path d="M6742 4431 c-19 -12 -5 -63 17 -59 21 4 25 29 9 51 -8 10 -18 14 -26
8z"/>
<path d="M205 4388 c-28 -15 -26 -13 -34 -50 -10 -43 3 -78 27 -78 15 0 23 13
34 53 14 49 14 87 -1 87 -3 0 -15 -6 -26 -12z"/>
<path d="M6720 4345 c-10 -12 -10 -18 0 -30 21 -25 42 -18 38 12 -4 32 -20 40
-38 18z"/>
<path d="M497 4332 c-22 -24 -7 -52 17 -33 17 14 22 51 8 51 -5 0 -16 -8 -25
-18z"/>
<path d="M716 4311 c-19 -21 -14 -61 8 -61 16 0 34 39 28 63 -5 22 -15 22 -36
-2z"/>
<path d="M422 4312 c-19 -13 -22 -49 -5 -63 13 -11 18 -10 29 6 17 23 17 27 2
48 -8 10 -18 14 -26 9z"/>
<path d="M7380 4301 c0 -12 -8 -30 -18 -41 -26 -28 -27 -82 -2 -105 17 -15 25
-17 38 -8 9 6 16 16 15 22 -2 6 -6 34 -9 63 -9 77 -9 77 -17 84 -4 4 -7 -3 -7
-15z"/>
<path d="M6850 4265 c-13 -15 -3 -23 32 -28 7 -2 24 -10 37 -19 19 -13 27 -14
43 -5 10 7 17 21 16 32 -3 16 -9 20 -40 17 -20 -1 -39 2 -43 8 -9 15 -31 12
-45 -5z"/>
<path d="M7058 4268 c-21 -17 -27 -39 -16 -60 13 -27 46 -22 54 6 12 50 -7 78
-38 54z"/>
<path d="M74 4215 c-24 -36 -15 -53 43 -80 l53 -24 25 22 c30 26 41 70 21 86
-10 9 -16 8 -26 -4 -12 -14 -15 -13 -32 5 -26 28 -64 26 -84 -5z"/>
<path d="M522 4218 c-7 -7 -12 -25 -12 -40 0 -21 5 -28 19 -28 22 0 35 30 26
60 -7 23 -16 25 -33 8z"/>
<path d="M7214 4186 c-9 -24 5 -83 21 -90 10 -3 17 3 21 21 12 47 -26 110 -42
69z"/>
<path d="M6691 4176 c-14 -17 -7 -36 14 -36 21 0 26 15 12 34 -12 16 -14 16
-26 2z"/>
<path d="M6634 4169 c-31 -11 -39 -28 -21 -46 13 -14 17 -13 32 11 21 32 17
46 -11 35z"/>
<path d="M373 4143 c-18 -7 -16 -50 3 -57 23 -9 34 2 34 35 0 28 -9 34 -37 22z"/>
<path d="M6437 4143 c-12 -12 -7 -31 10 -37 21 -8 35 6 27 27 -6 17 -25 22
-37 10z"/>
<path d="M44 4093 c-4 -21 -13 -50 -20 -65 -18 -35 -18 -72 0 -87 17 -15 26
-4 33 42 3 17 13 43 23 57 15 21 18 43 11 83 0 4 -10 7 -21 7 -14 0 -21 -9
-26 -37z"/>
<path d="M258 4119 c-11 -6 -18 -22 -18 -39 0 -23 5 -31 25 -36 14 -4 27 -5
29 -3 27 30 -5 96 -36 78z"/>
<path d="M7091 4097 c-15 -15 -14 -23 5 -62 17 -37 40 -37 53 -1 16 41 -30 91
-58 63z"/>
<path d="M7322 4086 c-11 -26 -5 -67 12 -78 5 -4 22 -4 37 -1 15 3 30 0 33 -6
14 -22 26 -10 26 24 0 28 -5 37 -30 50 -16 9 -30 20 -30 25 0 20 -37 9 -48
-14z"/>
<path d="M411 4066 c-8 -10 -8 -16 2 -25 16 -13 27 -5 27 21 0 21 -13 23 -29
4z"/>
<path d="M7250 4055 c-8 -9 -6 -24 6 -56 25 -67 38 -93 51 -102 15 -9 16 -17
4 -35 -7 -12 -12 -12 -29 -1 -25 16 -39 6 -45 -31 -8 -46 34 -84 49 -45 8 19
24 20 24 1 0 -19 27 -28 34 -10 8 20 24 17 31 -7 10 -31 35 -4 35 38 0 21 6
36 15 39 28 11 17 34 -16 34 -25 0 -33 6 -42 30 -6 17 -16 30 -22 30 -12 0
-42 53 -51 92 -7 31 -28 42 -44 23z"/>
<path d="M6973 4050 c-18 -8 -21 -14 -14 -32 11 -31 53 -60 74 -52 27 10 22
59 -8 78 -13 9 -26 16 -27 15 -2 0 -13 -4 -25 -9z"/>
<path d="M6612 4039 c2 -6 8 -10 13 -10 5 0 11 4 13 10 2 6 -4 11 -13 11 -9 0
-15 -5 -13 -11z"/>
<path d="M95 4029 c-16 -24 7 -78 46 -114 40 -36 41 -36 55 -16 17 24 9 45
-31 85 -14 14 -25 32 -25 41 0 17 -35 21 -45 4z"/>
<path d="M251 3956 c-6 -7 -9 -21 -5 -30 7 -18 47 -32 63 -21 18 10 12 44 -8
55 -26 13 -36 13 -50 -4z"/>
<path d="M393 3960 c-21 -8 -43 -38 -43 -58 0 -12 42 -30 58 -25 21 8 41 57
31 76 -11 19 -15 20 -46 7z"/>
<path d="M7196 3954 c-21 -21 -20 -37 5 -60 17 -16 22 -16 29 -4 11 17 13 42
4 64 -8 20 -18 20 -38 0z"/>
<path d="M557 3948 c-5 -16 31 -110 46 -120 20 -12 25 13 12 62 -7 27 -16 53
-19 59 -10 15 -33 14 -39 -1z"/>
<path d="M683 3924 c-7 -20 9 -49 28 -49 22 0 18 59 -4 63 -9 2 -20 -4 -24
-14z"/>
<path d="M6767 3933 c-13 -12 -7 -41 10 -47 20 -8 32 9 26 35 -5 19 -24 25
-36 12z"/>
<path d="M7111 3879 c-22 -24 -25 -39 -15 -76 9 -35 39 -28 59 12 31 67 0 111
-44 64z"/>
<path d="M6876 3883 c-11 -11 -6 -23 9 -23 8 0 15 4 15 9 0 13 -16 22 -24 14z"/>
<path d="M213 3868 c-6 -7 -13 -29 -17 -48 -3 -19 -20 -54 -36 -76 -25 -36
-28 -44 -15 -54 33 -28 73 14 80 83 1 16 8 34 14 40 16 16 14 67 -3 67 -7 0
-18 -6 -23 -12z"/>
<path d="M6914 3866 c-9 -24 3 -46 26 -46 17 0 21 5 18 27 -3 31 -34 44 -44
19z"/>
<path d="M16 3854 c-20 -20 -20 -58 -1 -78 14 -14 43 -12 46 3 10 47 -1 91
-21 91 -5 0 -16 -7 -24 -16z"/>
<path d="M105 3853 c-5 -10 -9 -22 -10 -28 -2 -17 17 -65 26 -65 15 0 30 40
27 73 -3 36 -31 49 -43 20z"/>
<path d="M286 3832 c-3 -5 -3 -17 -1 -28 2 -10 4 -40 4 -66 1 -41 4 -48 21
-48 15 0 20 7 21 28 1 15 2 40 4 56 3 44 -5 66 -26 66 -10 0 -20 -4 -23 -8z"/>
<path d="M6790 3805 c0 -28 4 -35 19 -35 10 0 21 8 23 18 7 29 -3 52 -23 52
-15 0 -19 -7 -19 -35z"/>
<path d="M545 3782 c-16 -11 -17 -38 -1 -51 10 -9 16 -8 25 3 22 27 2 67 -24
48z"/>
<path d="M6619 3775 c-8 -31 4 -55 27 -55 9 0 14 11 14 30 0 23 -4 30 -20 30
-11 0 -21 -2 -21 -5z"/>
<path d="M7056 3771 c-4 -5 -3 -16 0 -24 3 -8 8 -37 12 -63 9 -60 35 -69 40
-14 6 65 -31 136 -52 101z"/>
<path d="M7204 3738 c-4 -6 -8 -28 -10 -49 -3 -43 16 -65 64 -75 28 -6 32 -4
32 14 0 32 -36 108 -55 116 -22 8 -23 8 -31 -6z"/>
<path d="M7342 3720 c-10 -11 -19 -34 -20 -50 0 -16 -8 -40 -16 -52 -9 -12
-16 -31 -16 -41 0 -10 -9 -32 -21 -48 -26 -37 -18 -69 17 -69 45 0 49 -66 8
-111 -8 -9 -16 -27 -17 -39 -1 -13 -18 -41 -39 -64 -40 -43 -51 -92 -23 -102
20 -8 54 35 77 96 10 25 34 62 53 82 21 22 36 49 38 67 2 17 15 41 29 54 14
13 25 33 24 45 -1 26 -2 26 -39 17 -37 -10 -57 9 -57 52 0 36 36 83 63 83 8 0
20 7 27 15 10 13 6 21 -26 50 -21 19 -39 35 -41 35 -1 0 -11 -9 -21 -20z"/>
<path d="M6 3704 c-8 -22 -7 -36 3 -53 8 -12 12 -12 25 -2 22 18 20 48 -3 60
-15 8 -20 7 -25 -5z"/>
<path d="M75 3692 c-10 -10 -5 -53 10 -82 9 -17 15 -31 14 -32 -1 -2 1 -13 5
-26 12 -36 31 -20 30 24 -3 112 -3 111 -29 116 -13 3 -27 3 -30 0z"/>
<path d="M358 3653 c-5 -24 7 -69 28 -100 15 -23 17 -24 32 -9 14 14 14 20 -2
71 -13 41 -22 55 -36 55 -10 0 -20 -8 -22 -17z"/>
<path d="M6868 3665 c-3 -3 -3 -17 0 -31 6 -34 36 -28 40 9 3 21 -1 27 -16 27
-10 0 -21 -2 -24 -5z"/>
<path d="M6940 3651 c0 -24 18 -37 31 -24 13 13 1 43 -17 43 -8 0 -14 -9 -14
-19z"/>
<path d="M7127 3635 c-27 -26 6 -95 45 -95 22 0 23 25 3 74 -17 39 -26 44 -48
21z"/>
<path d="M247 3614 c-4 -4 -7 -15 -7 -24 0 -10 -15 -29 -34 -44 -44 -33 -48
-59 -18 -118 30 -59 58 -66 48 -12 -10 52 12 141 36 147 14 4 19 13 16 29 -3
22 -27 35 -41 22z"/>
<path d="M682 3608 c-16 -16 -15 -33 4 -53 14 -13 19 -14 25 -3 12 18 11 31
-4 51 -10 14 -15 15 -25 5z"/>
<path d="M7011 3553 c-12 -24 2 -48 24 -40 10 4 15 15 13 29 -4 28 -24 34 -37
11z"/>
<path d="M34 3533 c-3 -16 -10 -38 -16 -49 -18 -38 -6 -59 30 -56 18 2 32 0
33 -5 1 -12 7 -34 18 -70 12 -41 -16 -84 -50 -76 -20 6 -21 3 -16 -38 3 -24 6
-47 6 -51 1 -4 10 -12 22 -18 28 -16 49 4 49 46 0 39 16 53 34 28 15 -20 36
-11 36 14 0 10 -8 29 -17 42 -10 14 -18 41 -19 60 -1 19 -3 45 -3 56 -1 12 -9
24 -20 27 -12 3 -20 17 -24 46 -9 69 -51 98 -63 44z"/>
<path d="M634 3517 c-3 -9 -3 -25 0 -34 6 -15 8 -15 24 0 15 16 15 18 0 34
-16 15 -18 15 -24 0z"/>
<path d="M831 3481 c-9 -15 -7 -23 5 -36 19 -19 32 -10 36 25 4 31 -26 39 -41
11z"/>
<path d="M6714 3475 c-8 -19 9 -40 24 -31 13 8 9 39 -6 44 -7 2 -15 -4 -18
-13z"/>
<path d="M7013 3473 c-18 -7 -16 -43 2 -43 18 0 31 28 19 39 -5 5 -15 6 -21 4z"/>
<path d="M7096 3455 c-9 -9 -14 -20 -11 -25 3 -4 -2 -29 -9 -54 -14 -46 -14
-47 7 -44 37 5 70 105 43 127 -11 9 -18 8 -30 -4z"/>
<path d="M7181 3452 c-11 -21 6 -46 27 -40 5 2 19 -8 31 -22 21 -24 21 -25 36
-6 20 26 19 45 -2 52 -16 5 -53 21 -75 32 -4 2 -11 -6 -17 -16z"/>
<path d="M450 3431 c0 -22 26 -36 33 -18 6 18 -3 37 -19 37 -8 0 -14 -9 -14
-19z"/>
<path d="M322 3423 c-11 -20 -1 -53 20 -71 12 -10 18 -8 32 7 16 17 16 23 4
48 -16 33 -43 41 -56 16z"/>
<path d="M7405 3420 c-4 -6 -7 -25 -7 -43 0 -17 -7 -42 -14 -55 -13 -19 -13
-28 -1 -63 17 -50 28 -38 33 35 2 28 6 70 8 94 5 39 -5 55 -19 32z"/>
<path d="M6947 3386 c-15 -15 -13 -56 3 -56 11 0 28 23 32 44 4 25 -15 31 -35
12z"/>
<path d="M473 3374 c-7 -19 16 -64 33 -64 18 0 25 28 12 55 -13 28 -36 33 -45
9z"/>
<path d="M167 3353 c-7 -12 6 -38 21 -41 9 -2 12 5 10 19 -3 23 -22 36 -31 22z"/>
<path d="M647 3347 c-10 -25 -2 -62 14 -65 18 -3 40 43 32 66 -6 16 -39 16
-46 -1z"/>
<path d="M7126 3344 c-8 -20 11 -54 29 -54 22 0 23 49 2 62 -18 11 -24 10 -31
-8z"/>
<path d="M276 3294 c-13 -12 -13 -19 -4 -34 11 -18 14 -18 35 -4 22 14 23 13
23 -8 0 -21 1 -21 16 -6 20 20 12 50 -11 42 -8 -3 -15 -2 -15 4 0 18 -29 22
-44 6z"/>
<path d="M6794 3295 c-4 -9 -2 -21 5 -28 13 -13 18 -9 23 17 4 24 -20 33 -28
11z"/>
<path d="M204 3289 c-11 -19 -20 -92 -15 -136 2 -27 31 -13 31 15 0 15 9 41
19 58 17 29 18 34 5 53 -17 24 -29 27 -40 10z"/>
<path d="M6390 3280 c0 -11 4 -20 9 -20 13 0 32 26 24 33 -13 14 -33 6 -33
-13z"/>
<path d="M396 3261 c-8 -12 32 -61 50 -61 17 0 19 41 2 58 -14 14 -44 16 -52
3z"/>
<path d="M7092 3253 c-34 -14 -47 -120 -16 -130 16 -5 66 86 62 111 -3 21 -22
29 -46 19z"/>
<path d="M240 3165 c-31 -38 -3 -172 42 -196 28 -15 34 14 12 59 -11 21 -19
60 -19 91 0 57 -13 73 -35 46z"/>
<path d="M7380 3172 c0 -5 -9 -19 -20 -32 -18 -20 -21 -21 -35 -6 -25 25 -54
20 -61 -10 -10 -37 10 -74 40 -74 26 0 51 31 38 45 -4 5 1 5 10 2 9 -3 21 0
27 6 14 18 21 66 10 72 -5 4 -9 2 -9 -3z"/>
<path d="M6661 3151 c-8 -15 -5 -20 17 -31 15 -7 35 -17 46 -22 13 -7 21 -6
26 3 10 15 1 41 -11 34 -4 -3 -14 3 -21 15 -16 25 -44 26 -57 1z"/>
<path d="M6938 3153 c-17 -21 -48 -101 -48 -126 0 -10 8 -17 20 -17 15 0 20 7
20 27 0 15 12 44 26 65 35 50 20 94 -18 51z"/>
<path d="M342 3132 c-11 -32 0 -62 23 -62 18 0 31 48 18 68 -16 26 -30 24 -41
-6z"/>
<path d="M117 3143 c-4 -3 -7 -16 -7 -28 0 -11 -11 -36 -24 -54 -26 -35 -24
-66 7 -85 23 -14 44 9 50 54 3 19 8 47 12 63 9 36 -17 71 -38 50z"/>
<path d="M6788 3109 c-21 -12 -12 -49 12 -49 10 0 20 9 23 20 6 25 -13 41 -35
29z"/>
<path d="M542 3084 c2 -11 11 -20 22 -22 13 -3 17 1 14 14 -2 11 -11 20 -22
22 -13 3 -17 -1 -14 -14z"/>
<path d="M7126 3084 c-18 -17 -19 -24 -10 -48 3 -9 10 -13 15 -11 13 9 87 -33
99 -56 6 -11 12 -38 12 -60 0 -28 6 -42 19 -50 21 -11 22 -10 24 49 1 48 17
64 52 56 18 -5 25 0 33 21 14 37 13 75 -3 75 -7 0 -23 -7 -35 -16 -14 -9 -30
-13 -40 -8 -9 4 -26 6 -36 5 -10 -2 -28 8 -40 22 -27 32 -69 42 -90 21z"/>
<path d="M656 3054 c-9 -22 4 -64 19 -64 16 0 25 43 13 64 -11 20 -24 20 -32
0z"/>
<path d="M162 3032 c-10 -30 8 -104 30 -125 21 -21 47 -27 55 -14 11 18 4 47
-23 86 -13 20 -24 43 -24 52 0 30 -28 30 -38 1z"/>
<path d="M492 3028 c-20 -20 -14 -43 24 -92 29 -38 38 -45 50 -35 12 10 9 20
-17 68 -41 71 -43 73 -57 59z"/>
<path d="M729 3024 c-10 -13 -10 -19 0 -36 7 -12 9 -23 4 -27 -18 -12 -22 -40
-8 -51 20 -17 36 -3 29 25 -3 13 1 33 10 48 28 41 -4 79 -35 41z"/>
<path d="M342 2998 c0 -18 -5 -44 -10 -58 -7 -18 -5 -31 6 -48 18 -28 41 -14
36 23 -1 17 4 29 17 35 38 21 18 80 -27 80 -18 0 -22 -6 -22 -32z"/>
<path d="M7040 3010 c-17 -17 -19 -24 -9 -36 18 -22 38 -17 45 12 10 38 -9 51
-36 24z"/>
<path d="M112 2923 c-20 -16 -21 -22 -11 -60 8 -31 17 -43 30 -43 24 0 36 -44
21 -83 -9 -24 -7 -42 10 -96 29 -91 40 -98 36 -26 -2 33 0 60 3 60 4 0 16 8
27 18 19 17 22 17 51 3 37 -20 60 -20 67 -2 9 22 -12 52 -46 66 -16 7 -30 16
-30 21 0 5 -7 9 -16 9 -10 0 -14 6 -11 14 8 20 -14 44 -43 48 -18 2 -28 12
-36 36 -15 48 -27 56 -52 35z m123 -165 c-6 -29 -10 -31 -29 -12 -13 12 -14
19 -6 29 16 19 39 7 35 -17z"/>
<path d="M7118 2933 c-27 -7 -37 -123 -10 -123 29 1 58 79 41 111 -5 11 -11
18 -12 18 -1 -1 -10 -3 -19 -6z"/>
<path d="M6922 2918 c-7 -7 -12 -20 -12 -31 0 -24 33 -19 38 7 5 24 -11 39
-26 24z"/>
<path d="M7031 2898 c-9 -25 3 -48 24 -48 17 0 27 28 20 51 -9 26 -34 24 -44
-3z"/>
<path d="M6599 2888 c-1 -7 -3 -23 -4 -35 -3 -34 20 -49 38 -23 21 31 16 64
-10 68 -14 2 -24 -2 -24 -10z"/>
<path d="M6955 2860 c-27 -10 -42 -30 -47 -60 -5 -38 34 -39 61 -2 33 47 26
77 -14 62z"/>
<path d="M392 2807 c-26 -31 -2 -74 33 -61 17 7 30 47 20 63 -9 15 -40 14 -53
-2z"/>
<path d="M7145 2811 c-3 -5 -7 -23 -9 -40 -5 -41 12 -49 81 -40 30 4 61 5 68
3 16 -7 27 10 31 46 5 40 -25 49 -51 16 -26 -32 -38 -33 -63 -1 -20 25 -46 33
-57 16z"/>
<path d="M716 2784 c-7 -19 1 -34 19 -34 18 0 26 25 12 39 -15 15 -24 14 -31
-5z"/>
<path d="M6446 2754 c-21 -20 -20 -43 0 -51 19 -7 44 21 44 49 0 22 -23 23
-44 2z"/>
<path d="M885 2746 c-16 -12 -16 -13 0 -29 24 -25 45 -21 45 7 0 29 -22 39
-45 22z"/>
<path d="M6769 2739 c-8 -15 -8 -24 0 -32 15 -15 46 16 38 37 -9 22 -24 20
-38 -5z"/>
<path d="M497 2734 c-23 -24 20 -118 49 -107 12 4 14 14 10 37 -7 33 -47 81
-59 70z"/>
<path d="M572 2708 c-10 -36 3 -77 19 -61 13 13 27 65 22 81 -9 23 -32 12 -41
-20z"/>
<path d="M7026 2708 c-9 -12 -16 -30 -16 -40 0 -10 -6 -18 -13 -18 -17 0 -38
-45 -31 -65 4 -8 16 -15 29 -15 13 0 25 -7 27 -17 7 -26 -1 -43 -18 -36 -8 3
-14 0 -14 -5 0 -6 -16 -27 -35 -48 -39 -41 -44 -83 -13 -110 23 -22 41 -8 33
26 -4 20 0 35 20 58 14 16 25 37 25 46 0 9 6 13 14 10 18 -7 44 36 39 66 -2
14 -16 35 -31 47 -15 12 -25 23 -22 23 3 1 14 3 24 5 11 2 28 12 38 23 15 15
17 23 9 45 -13 33 -44 35 -65 5z"/>
<path d="M357 2684 c-9 -9 3 -58 16 -66 32 -20 47 11 23 47 -16 25 -27 30 -39
19z"/>
<path d="M7178 2654 c-27 -13 -48 -31 -48 -40 0 -9 -8 -29 -17 -45 -21 -35 -7
-57 25 -40 17 9 21 7 26 -12 3 -12 6 -34 6 -49 0 -32 9 -58 20 -58 12 0 40 77
40 110 0 16 -5 40 -11 54 -10 20 -8 29 10 54 40 57 24 66 -51 26z"/>
<path d="M6892 2654 c-26 -18 -30 -64 -6 -64 22 0 43 29 44 58 0 26 -8 27 -38
6z"/>
<path d="M275 2643 c-18 -3 -20 -13 -23 -96 -2 -51 -5 -103 -6 -116 -3 -28 20
-81 35 -81 16 0 22 30 12 63 -10 32 0 91 16 101 14 9 61 -34 61 -55 0 -22 22
-34 44 -26 20 8 8 48 -16 54 -10 3 -18 10 -19 17 -2 28 -9 45 -38 88 -36 54
-38 55 -66 51z"/>
<path d="M6262 2637 c-10 -11 -9 -17 3 -27 24 -20 45 4 24 26 -14 13 -17 13
-27 1z"/>
<path d="M7260 2634 c0 -8 5 -12 10 -9 6 4 8 11 5 16 -9 14 -15 11 -15 -7z"/>
<path d="M441 2591 c-8 -14 -6 -25 9 -44 29 -37 73 -26 63 16 -11 44 -55 61
-72 28z"/>
<path d="M6520 2591 c-4 -8 -3 -25 3 -38 14 -31 63 -32 72 -2 14 42 -54 78
-75 40z"/>
<path d="M6721 2596 c-14 -16 -4 -46 15 -46 20 0 36 34 22 48 -15 15 -23 15
-37 -2z"/>
<path d="M6775 2580 c-4 -6 -3 -16 3 -22 6 -6 12 -6 17 2 4 6 3 16 -3 22 -6 6
-12 6 -17 -2z"/>
<path d="M6898 2513 c-7 -16 -21 -38 -32 -51 -16 -18 -18 -27 -10 -40 6 -9 15
-16 20 -16 13 2 53 85 53 112 1 31 -17 28 -31 -5z"/>
<path d="M654 2518 c-7 -12 21 -38 42 -38 20 0 27 19 14 35 -15 18 -46 20 -56
3z"/>
<path d="M473 2513 c-20 -7 1 -58 25 -61 17 -3 21 0 15 15 -11 31 -28 50 -40
46z"/>
<path d="M6801 2503 c-9 -18 -11 -25 -11 -43 0 -5 -7 -10 -15 -10 -20 0 -47
-43 -39 -64 3 -9 9 -16 13 -16 9 0 85 82 92 100 7 17 -7 50 -21 50 -5 0 -14
-8 -19 -17z"/>
<path d="M736 2487 c-17 -12 -17 -17 -5 -43 20 -41 63 -41 67 1 3 19 -2 33
-14 42 -22 16 -26 16 -48 0z"/>
<path d="M7083 2478 c-4 -7 -6 -22 -5 -34 2 -11 -4 -26 -12 -33 -8 -7 -20 -28
-26 -47 -6 -19 -15 -34 -20 -34 -5 0 -29 -20 -54 -44 -32 -33 -50 -43 -65 -39
-15 4 -23 -1 -30 -18 -12 -34 -3 -51 23 -43 11 4 36 8 54 10 38 3 62 19 62 43
0 27 20 42 42 30 26 -14 38 -3 38 34 0 18 9 47 20 65 24 38 25 58 6 65 -9 4
-12 14 -9 25 6 23 -12 38 -24 20z"/>
<path d="M537 2463 c-16 -16 -4 -45 45 -102 28 -34 55 -61 60 -61 21 0 4 43
-42 104 -54 70 -53 70 -63 59z"/>
<path d="M960 2431 c0 -24 18 -37 31 -24 13 13 1 43 -17 43 -8 0 -14 -9 -14
-19z"/>
<path d="M354 2398 c-31 -14 -47 -49 -36 -78 5 -14 10 -50 11 -80 1 -30 10
-66 18 -80 l16 -25 10 30 c5 17 14 35 19 42 5 6 6 28 2 47 -6 36 -6 36 30 36
20 0 36 5 36 11 0 15 -57 96 -72 101 -7 3 -23 1 -34 -4z"/>
<path d="M942 2381 c-20 -12 19 -56 43 -48 15 7 16 10 3 29 -17 26 -28 31 -46
19z"/>
<path d="M6810 2329 c0 -31 18 -59 38 -59 30 0 41 19 30 51 -8 23 -16 29 -39
29 -23 0 -29 -5 -29 -21z"/>
<path d="M473 2324 c-7 -18 27 -68 49 -72 23 -5 28 21 11 56 -17 34 -49 43
-60 16z"/>
<path d="M6385 2300 c-7 -12 3 -50 13 -50 18 1 34 19 30 36 -4 21 -33 31 -43
14z"/>
<path d="M6736 2268 c-9 -13 -12 -26 -7 -31 12 -12 51 14 51 35 0 25 -26 22
-44 -4z"/>
<path d="M6230 2260 c-16 -16 -18 -25 -10 -40 19 -35 60 -17 60 26 0 30 -26
38 -50 14z"/>
<path d="M6463 2268 c-13 -21 -13 -47 -1 -54 13 -8 48 30 48 52 0 17 -36 18
-47 2z"/>
<path d="M650 2210 c-18 -25 -24 -28 -65 -23 -49 5 -57 -7 -33 -50 7 -12 15
-58 18 -101 6 -66 10 -82 30 -98 27 -22 46 -18 42 8 -2 10 -6 43 -9 72 -4 36
-12 57 -24 66 -23 16 -16 45 11 43 25 -2 88 54 89 79 1 35 -35 37 -59 4z"/>
<path d="M7072 2228 c-7 -7 -12 -18 -12 -25 0 -13 -34 -35 -43 -27 -6 6 -47
-44 -47 -58 0 -6 13 -7 31 -3 31 7 31 7 27 -29 -2 -20 0 -36 4 -36 9 0 48 74
48 91 0 7 6 20 14 28 8 9 18 28 21 44 6 22 4 27 -12 27 -10 0 -24 -5 -31 -12z"/>
<path d="M453 2203 c-22 -8 -14 -52 15 -84 34 -38 55 -32 47 12 -9 52 -35 81
-62 72z"/>
<path d="M6621 2168 c-12 -31 4 -58 33 -58 30 0 48 22 44 52 -2 18 -10 24 -36
26 -26 3 -34 -1 -41 -20z"/>
<path d="M1237 2143 c-11 -10 -8 -20 9 -37 21 -21 44 -20 44 2 0 31 -35 54
-53 35z"/>
<path d="M6722 2133 c-28 -24 -40 -73 -19 -73 17 0 53 47 53 67 -1 21 -13 24
-34 6z"/>
<path d="M840 2115 c0 -8 9 -24 20 -35 39 -39 66 -18 34 28 -17 25 -54 30 -54
7z"/>
<path d="M6927 2119 c-9 -6 -17 -19 -17 -29 0 -21 -16 -27 -22 -9 -6 17 -54
-10 -67 -38 -6 -13 -11 -33 -11 -45 0 -17 4 -19 25 -14 14 4 25 2 25 -3 0 -6
12 -6 32 1 29 10 33 9 58 -22 l28 -34 16 33 c10 18 16 42 14 54 -2 18 -10 22
-41 24 -49 1 -51 5 -27 31 32 34 23 71 -13 51z"/>
<path d="M6780 2112 c-34 -11 -40 -48 -10 -57 25 -8 50 10 50 35 0 20 -17 30
-40 22z"/>
<path d="M786 2074 c-8 -31 5 -49 28 -41 21 8 21 53 0 61 -22 8 -21 9 -28 -20z"/>
<path d="M1124 2086 c-8 -21 14 -56 36 -56 23 0 30 18 17 48 -11 25 -45 30
-53 8z"/>
<path d="M460 2036 c-5 -13 -14 -26 -21 -28 -8 -3 2 -31 31 -84 24 -43 44 -80
46 -82 7 -9 53 -7 67 3 14 10 14 15 1 41 -8 16 -28 37 -45 47 -28 16 -31 21
-25 52 11 59 -34 103 -54 51z"/>
<path d="M727 2044 c-9 -9 15 -54 29 -54 20 0 26 18 14 40 -10 19 -31 26 -43
14z"/>
<path d="M6386 2029 c-8 -12 -12 -28 -9 -36 5 -12 8 -12 27 0 26 17 34 57 12
57 -8 0 -22 -10 -30 -21z"/>
<path d="M6552 2028 c-19 -19 -15 -48 8 -48 26 0 48 39 29 51 -18 12 -23 11
-37 -3z"/>
<path d="M6410 1969 c-9 -17 -9 -23 1 -29 18 -12 57 9 55 29 -4 25 -43 26 -56
0z"/>
<path d="M6687 1983 c-10 -9 -8 -41 2 -48 12 -7 41 22 41 41 0 14 -31 20 -43
7z"/>
<path d="M1164 1969 c-16 -26 49 -94 83 -87 26 5 26 23 -1 56 -26 30 -72 47
-82 31z"/>
<path d="M6167 1959 c-7 -25 17 -37 38 -19 23 19 18 40 -9 40 -15 0 -26 -7
-29 -21z"/>
<path d="M1011 1957 c-16 -20 25 -63 44 -47 12 10 12 16 -2 36 -18 27 -26 30
-42 11z"/>
<path d="M680 1946 c0 -18 26 -40 34 -27 9 14 -4 41 -20 41 -8 0 -14 -6 -14
-14z"/>
<path d="M876 1931 c-21 -23 -14 -56 14 -71 15 -8 21 -6 29 9 6 10 7 21 4 25
-3 3 -1 6 5 6 7 0 12 11 12 25 0 20 -5 25 -23 25 -13 0 -32 -9 -41 -19z"/>
<path d="M6879 1933 c-19 -5 -34 -62 -20 -76 11 -11 61 35 61 56 0 17 -17 25
-41 20z"/>
<path d="M5919 1900 c-18 -11 -45 -67 -36 -76 21 -21 81 43 70 74 -5 14 -12
15 -34 2z"/>
<path d="M6517 1896 c-3 -8 4 -18 18 -24 20 -9 23 -15 16 -39 -16 -52 -16 -57
-1 -60 23 -5 33 7 57 64 24 60 21 66 -43 70 -28 2 -44 -1 -47 -11z"/>
<path d="M6686 1891 c-21 -23 -27 -82 -9 -88 18 -6 53 34 53 61 0 36 -23 50
-44 27z"/>
<path d="M618 1875 c-15 -33 6 -75 38 -75 23 0 34 17 34 55 0 44 -54 58 -72
20z"/>
<path d="M6342 1884 c4 -21 22 -23 26 -1 2 10 -3 17 -13 17 -10 0 -15 -6 -13
-16z"/>
<path d="M6458 1883 c-23 -6 -30 -30 -12 -47 18 -18 40 -11 47 14 6 22 -11 38
-35 33z"/>
<path d="M6763 1869 c-40 -15 -25 -79 19 -79 23 0 38 30 28 56 -11 29 -20 33
-47 23z"/>
<path d="M766 1854 c-17 -44 8 -104 45 -104 20 0 23 7 20 54 -3 50 -51 87 -65
50z"/>
<path d="M6228 1832 c-53 -30 -65 -49 -46 -69 11 -10 18 -8 42 12 16 14 37 25
46 25 20 0 37 18 36 40 -1 24 -28 21 -78 -8z"/>
<path d="M1197 1842 c-23 -5 -18 -30 9 -49 19 -12 22 -12 26 5 7 25 -12 49
-35 44z"/>
<path d="M6822 1810 c-10 -16 -30 -39 -45 -50 -31 -24 -36 -60 -9 -60 9 0 38
16 65 35 39 29 47 40 43 60 -10 53 -28 59 -54 15z"/>
<path d="M4727 1823 c-4 -3 0 -17 9 -31 9 -13 19 -51 21 -83 l6 -59 -38 19
c-68 33 -162 15 -211 -41 -30 -35 -42 -69 -40 -119 2 -56 32 -100 92 -135 39
-23 52 -26 97 -19 29 3 78 7 110 8 31 1 57 6 58 12 1 14 1 394 0 428 -1 26 -3
27 -49 27 -27 0 -52 -3 -55 -7z m-37 -182 c60 -43 94 -162 63 -223 -57 -116
-203 -9 -203 149 0 36 6 50 29 73 32 33 67 33 111 1z"/>
<path d="M4160 1804 c-39 -11 -42 -76 -5 -91 25 -9 65 17 65 42 0 19 -29 57
-41 54 -2 -1 -11 -3 -19 -5z"/>
<path d="M6678 1775 c-32 -37 -47 -83 -41 -127 4 -28 -2 -49 -27 -96 -41 -77
-68 -79 -75 -6 -3 39 -28 65 -64 71 -42 6 -71 -69 -31 -82 11 -3 28 -17 38
-30 16 -20 19 -35 13 -76 -1 -3 -10 -16 -21 -29 -24 -27 -26 -72 -5 -90 12
-10 20 -9 40 4 32 21 56 68 44 87 -16 26 -10 37 35 58 48 24 81 55 72 69 -3 5
5 30 18 54 13 24 23 55 22 69 -1 13 3 42 10 64 20 71 7 100 -28 60z"/>
<path d="M560 1778 c0 -17 47 -85 76 -109 26 -22 52 -30 59 -19 8 13 25 13 25
0 0 -5 9 -19 20 -30 21 -21 27 -65 10 -75 -14 -9 -6 -61 13 -79 12 -13 17 -13
34 -1 29 20 47 4 52 -47 1 -4 13 -13 28 -20 25 -12 57 -57 48 -66 -2 -3 -18 7
-35 22 -17 14 -36 26 -42 26 -14 0 18 -49 54 -81 15 -14 28 -29 28 -32 0 -8
46 -57 54 -57 4 0 5 27 2 61 -3 45 -10 66 -25 80 -15 15 -19 25 -12 37 11 21
0 51 -28 76 -13 12 -21 31 -21 53 0 18 -6 44 -14 56 -8 12 -17 35 -20 52 -3
16 -10 31 -15 33 -7 2 -6 11 2 22 9 15 9 22 -1 32 -10 10 -15 10 -21 -1 -5 -8
-7 -20 -4 -28 3 -7 -1 -13 -10 -13 -9 0 -17 -8 -19 -17 -3 -13 -17 3 -47 50
-47 73 -75 89 -64 35 4 -22 3 -29 -5 -24 -7 4 -22 9 -34 11 -13 3 -28 10 -33
17 -6 7 -20 22 -33 32 -18 15 -22 16 -22 4z m263 -175 c2 -5 7 -21 11 -38 6
-26 6 -28 -7 -15 -19 20 -31 60 -18 60 5 0 12 -3 14 -7z"/>
<path d="M1016 1748 c-21 -30 -20 -55 2 -67 40 -22 83 44 50 77 -18 18 -35 15
-52 -10z"/>
<path d="M907 1729 c-23 -13 -21 -34 5 -59 14 -13 29 -18 42 -14 30 9 31 11
18 38 -14 32 -42 47 -65 35z"/>
<path d="M6343 1714 c-3 -8 0 -21 6 -27 10 -9 16 -8 26 7 8 10 12 23 9 27 -9
15 -34 10 -41 -7z"/>
<path d="M6507 1704 c-4 -4 -19 -7 -33 -8 -33 -1 -54 -30 -37 -47 10 -10 17
-8 33 6 11 10 20 13 20 7 0 -19 41 -25 58 -8 13 13 14 20 6 34 -12 18 -36 27
-47 16z"/>
<path d="M1074 1675 c-4 -10 1 -30 10 -46 9 -16 16 -34 15 -41 -3 -24 1 -37
17 -52 36 -36 62 -7 37 40 -9 16 -18 42 -22 58 -3 16 -16 35 -29 44 -20 13
-22 13 -28 -3z"/>
<path d="M2098 1682 c-25 -5 -22 -19 5 -33 25 -14 55 -46 93 -101 l26 -37 -34
-38 c-18 -21 -48 -53 -67 -71 -36 -35 -32 -51 12 -46 12 1 26 3 30 3 5 1 7 9
6 19 -3 34 2 48 33 81 l31 35 34 -40 c26 -29 33 -46 31 -66 -5 -32 1 -35 70
-32 64 2 75 11 42 33 -32 20 -57 47 -97 103 l-32 45 64 68 c35 38 63 71 61 72
-2 2 -19 5 -39 6 -35 3 -58 -15 -37 -28 13 -8 -11 -53 -40 -80 l-22 -20 -29
35 c-22 26 -28 42 -24 63 3 21 0 27 -13 28 -73 4 -89 4 -104 1z"/>
<path d="M2743 1682 c-22 -3 -73 -48 -73 -63 0 -22 54 -7 81 22 27 29 31 30
51 17 15 -10 23 -28 26 -52 3 -35 2 -37 -17 -27 -46 25 -125 -1 -151 -50 -41
-76 21 -173 107 -169 21 1 61 2 88 3 l50 2 3 100 c4 114 -7 162 -43 188 -33
24 -84 36 -122 29z m45 -130 c63 -36 63 -172 0 -172 -49 0 -90 54 -90 117 0
60 39 84 90 55z"/>
<path d="M3233 1676 c-41 -14 -62 -35 -69 -69 -3 -21 3 -35 29 -62 19 -19 37
-35 41 -35 15 0 96 -61 106 -80 27 -50 -75 -70 -128 -25 -38 31 -52 32 -52 1
0 -32 48 -49 144 -49 42 -1 53 3 77 30 15 18 26 40 24 50 -2 10 -4 21 -4 25
-3 20 -59 71 -116 104 -71 41 -85 62 -59 81 28 20 70 15 100 -12 29 -27 44
-25 44 6 0 34 -80 54 -137 35z"/>
<path d="M3702 1670 c-45 -20 -51 -28 -57 -69 -4 -34 7 -46 97 -106 77 -50 96
-76 73 -99 -26 -26 -91 -21 -121 9 -29 29 -55 33 -51 8 5 -31 16 -41 54 -48
124 -24 175 -4 188 74 3 16 -24 71 -35 71 -4 0 -15 8 -26 18 -10 10 -42 31
-71 46 -73 40 -78 67 -16 85 26 8 35 5 64 -20 41 -35 49 -36 49 -4 0 45 -82
64 -148 35z"/>
<path d="M4138 1682 c-22 -4 -22 -5 -2 -43 21 -41 18 -213 -4 -247 -23 -35 -2
-42 106 -33 9 1 8 9 -5 34 -13 25 -17 60 -17 154 -1 67 -5 125 -9 129 -8 8
-43 11 -69 6z"/>
<path d="M5183 1682 c-12 -2 -34 -18 -49 -35 l-27 -32 28 -3 c22 -3 34 3 48
22 28 39 83 33 87 -9 5 -47 1 -56 -19 -45 -47 25 -120 0 -146 -50 -48 -92 30
-192 131 -170 18 4 50 6 73 4 l41 -4 0 115 c0 122 -9 155 -47 181 -34 21 -84
33 -120 26z m56 -137 c59 -50 49 -165 -14 -165 -68 0 -115 127 -63 172 28 24
41 23 77 -7z"/>
<path d="M6756 1645 c-27 -21 -46 -44 -46 -55 0 -11 -4 -20 -9 -20 -5 0 -11
-9 -14 -20 -4 -15 0 -20 14 -20 20 0 109 111 109 136 0 19 -1 19 -54 -21z"/>
<path d="M6300 1636 c-7 -9 -10 -23 -6 -31 11 -30 53 -10 52 25 -1 20 -30 24
-46 6z"/>
<path d="M1247 1610 c6 -23 42 -52 55 -44 24 15 -8 64 -42 64 -13 0 -17 -5
-13 -20z"/>
<path d="M5980 1585 c-15 -19 -6 -47 14 -39 17 6 29 32 20 45 -8 13 -20 11
-34 -6z"/>
<path d="M6173 1589 c-16 -16 -5 -39 15 -32 20 8 32 24 26 35 -7 11 -28 10
-41 -3z"/>
<path d="M6360 1585 c-13 -15 -7 -45 8 -45 12 0 36 28 38 46 3 19 -30 18 -46
-1z"/>
<path d="M930 1565 c-8 -10 -3 -19 21 -39 29 -25 34 -26 47 -12 14 14 14 17
-2 35 -23 25 -53 32 -66 16z"/>
<path d="M6223 1555 c-3 -9 -3 -18 0 -22 10 -10 37 6 37 22 0 20 -29 20 -37 0z"/>
<path d="M1116 1492 c-8 -13 30 -69 58 -88 36 -23 61 -12 45 18 -14 26 -25 38
-59 61 -27 19 -36 21 -44 9z"/>
<path d="M1451 1482 c-13 -25 5 -52 34 -52 26 0 32 20 19 54 -8 21 -41 20 -53
-2z"/>
<path d="M1037 1473 c-24 -23 10 -83 46 -83 18 0 21 8 19 49 -2 33 -44 56 -65
34z"/>
<path d="M6052 1445 c-23 -27 -31 -61 -19 -85 7 -12 17 -23 22 -23 16 -1 54
81 48 103 -6 23 -32 26 -51 5z"/>
<path d="M6593 1449 c-19 -7 -21 -12 -14 -31 11 -31 37 -34 51 -7 16 29 -5 51
-37 38z"/>
<path d="M1346 1435 c-3 -8 -1 -28 5 -43 6 -15 10 -28 10 -29 -6 -21 3 -33 24
-33 26 0 29 9 25 60 -4 46 -51 79 -64 45z"/>
<path d="M5692 1438 c-6 -8 -7 -19 -3 -26 6 -10 10 -10 19 0 6 8 7 19 3 26 -6
10 -10 10 -19 0z"/>
<path d="M6331 1410 c-13 -39 -5 -59 26 -66 27 -7 76 22 80 47 3 13 -60 49
-84 49 -6 0 -16 -14 -22 -30z"/>
<path d="M5774 1397 c-5 -17 9 -37 26 -37 16 0 31 20 28 35 -4 26 -46 27 -54
2z"/>
<path d="M6268 1398 c-33 -11 -44 -37 -24 -56 13 -13 18 -13 40 2 25 16 35 50
19 59 -5 2 -20 0 -35 -5z"/>
<path d="M1017 1363 c-12 -11 -8 -23 8 -23 8 0 15 7 15 15 0 16 -12 20 -23 8z"/>
<path d="M5420 1339 c-8 -15 -7 -21 4 -25 19 -7 36 3 36 21 0 22 -29 26 -40 4z"/>
<path d="M1084 1329 c-8 -14 23 -59 41 -59 17 0 19 14 5 39 -12 23 -37 34 -46
20z"/>
<path d="M1187 1334 c-8 -8 11 -45 32 -62 41 -32 119 -72 143 -72 16 0 34 -9
45 -24 24 -30 59 -42 66 -22 7 17 -36 56 -60 56 -8 0 -28 14 -43 30 -16 18
-38 30 -53 30 -13 0 -38 13 -54 29 -32 30 -65 46 -76 35z"/>
<path d="M1862 1283 c2 -20 9 -29 26 -31 20 -3 23 0 20 25 -2 20 -9 29 -26 31
-20 3 -23 0 -20 -25z"/>
<path d="M5506 1275 c-7 -20 3 -45 20 -45 13 0 34 30 34 49 0 17 -47 13 -54
-4z"/>
<path d="M5841 1272 c-7 -14 -6 -25 5 -41 9 -12 13 -29 10 -37 -3 -8 3 -23 14
-34 16 -16 25 -18 39 -10 16 8 18 7 15 -8 -7 -30 10 -46 35 -32 27 14 26 57
-1 52 -13 -2 -18 4 -18 20 0 13 -9 29 -19 35 -11 7 -21 25 -23 40 -4 35 -41
44 -57 15z"/>
<path d="M1046 1258 c-16 -23 -11 -48 15 -77 24 -25 32 -26 49 -5 20 23 17 74
-6 87 -30 18 -43 17 -58 -5z"/>
<path d="M6163 1268 c-52 -11 -134 -80 -116 -98 9 -10 18 -8 40 8 15 11 31 20
36 20 38 1 88 17 101 31 15 16 15 19 -1 33 -14 11 -27 13 -60 6z"/>
<path d="M6458 1259 c-10 -5 -18 -15 -18 -20 0 -14 -26 -39 -33 -32 -3 3 -20
1 -37 -5 -29 -10 -30 -10 -24 12 8 33 -21 42 -41 13 -21 -29 -19 -47 5 -47 26
0 26 -20 0 -27 -12 -3 -19 -11 -17 -17 3 -6 11 -9 18 -7 8 2 26 3 42 2 22 -1
39 11 82 56 64 68 75 103 23 72z"/>
<path d="M1814 1235 c-8 -19 13 -45 36 -45 10 0 23 -7 30 -15 18 -22 39 -19
33 5 -3 11 -9 20 -14 20 -5 0 -19 11 -31 25 -24 28 -46 32 -54 10z"/>
<path d="M1206 1215 c-18 -13 -18 -16 -2 -40 17 -26 24 -29 49 -19 18 6 12 37
-11 58 -15 12 -20 12 -36 1z"/>
<path d="M2199 1220 c-11 -7 -11 -14 -3 -27 14 -23 48 -23 52 -1 4 21 -29 40
-49 28z"/>
<path d="M5649 1223 c-18 -4 -29 -30 -22 -50 7 -19 23 -16 45 9 27 32 16 52
-23 41z"/>
<path d="M1616 1201 c-9 -13 44 -61 60 -54 20 7 18 16 -9 41 -25 23 -42 28
-51 13z"/>
<path d="M1153 1152 c-15 -10 -19 -32 -9 -62 11 -32 25 -41 46 -28 19 12 18
61 -1 84 -13 16 -19 17 -36 6z"/>
<path d="M1339 1147 c-28 -22 -30 -47 -5 -70 13 -12 31 -36 40 -54 17 -35 43
-53 64 -46 9 4 6 16 -13 48 -14 24 -25 53 -25 64 0 11 -10 31 -22 45 -19 21
-26 23 -39 13z"/>
<path d="M6200 1132 c0 -5 -10 -14 -23 -21 -13 -7 -28 -21 -35 -32 -11 -17 -9
-23 12 -44 29 -29 71 -33 81 -7 4 9 9 38 11 65 4 45 3 47 -21 47 -14 0 -25 -4
-25 -8z"/>
<path d="M1568 1083 c-22 -6 -23 -17 -2 -37 23 -23 59 -3 44 24 -11 20 -12 21
-42 13z"/>
<path d="M5751 1068 c-12 -32 10 -43 31 -17 10 12 15 25 12 30 -10 17 -35 9
-43 -13z"/>
<path d="M1266 1055 c-7 -26 -43 -42 -71 -31 -13 4 -13 2 -5 -14 14 -27 50
-50 77 -50 12 0 48 -13 78 -30 77 -41 116 -40 93 4 -14 28 -28 36 -58 36 -14
0 -36 7 -48 16 -22 15 -22 17 -6 35 16 18 16 20 -1 39 -25 28 -51 25 -59 -5z"/>
<path d="M1673 1063 c-7 -18 21 -43 49 -43 21 0 23 10 6 32 -20 24 -48 30 -55
11z"/>
<path d="M5238 1058 c-17 -15 -31 -48 -20 -49 4 0 15 -2 25 -4 10 -2 24 7 33
20 25 38 -3 61 -38 33z"/>
<path d="M5423 1057 c-28 -12 -29 -23 -5 -36 21 -11 52 3 52 23 0 19 -21 25
-47 13z"/>
<path d="M6040 1055 c-14 -17 -7 -45 13 -45 19 0 59 39 52 51 -9 14 -51 11
-65 -6z"/>
<path d="M5092 1038 c-17 -17 -15 -25 7 -31 21 -5 41 9 41 30 0 16 -32 17 -48
1z"/>
<path d="M5932 1029 c-27 -10 -79 -64 -79 -83 0 -24 30 -29 47 -8 9 11 27 23
41 27 13 4 34 14 47 21 18 12 20 18 12 34 -10 19 -33 22 -68 9z"/>
<path d="M1471 1011 c-34 -22 24 -93 64 -78 42 17 24 87 -22 87 -16 0 -34 -4
-42 -9z"/>
<path d="M1807 1004 c-11 -12 13 -44 33 -44 37 0 33 32 -6 44 -11 3 -23 3 -27
0z"/>
<path d="M6175 973 c-30 -33 -35 -59 -7 -44 23 14 44 32 61 54 24 30 -24 21
-54 -10z"/>
<path d="M5454 966 c-15 -38 25 -80 66 -69 22 6 32 40 19 65 -12 22 -77 25
-85 4z"/>
<path d="M5675 960 c-31 -12 -68 -57 -61 -75 5 -13 9 -14 28 -4 24 13 98 19
98 8 0 -4 -6 -12 -14 -18 -8 -6 -16 -21 -19 -32 -5 -18 -1 -20 26 -17 25 2 34
-2 42 -20 11 -25 29 -25 103 1 l44 15 10 -29 c12 -36 24 -36 60 -3 22 22 25
31 17 46 -7 13 -19 18 -37 17 -15 -2 -33 0 -40 5 -8 4 -33 3 -58 -4 -51 -15
-74 -3 -74 36 0 15 -6 24 -16 24 -9 0 -14 6 -11 13 13 34 -47 56 -98 37z"/>
<path d="M6036 929 c-17 -24 -9 -51 17 -55 19 -3 44 24 49 51 5 30 -45 33 -66
4z"/>
<path d="M1580 921 c0 -17 18 -31 41 -31 5 0 9 11 9 25 0 20 -5 25 -25 25 -18
0 -25 -5 -25 -19z"/>
<path d="M2822 927 c-14 -17 9 -47 37 -47 21 0 26 15 15 44 -7 19 -37 21 -52
3z"/>
<path d="M4614 914 c3 -9 6 -18 6 -20 0 -12 39 -2 44 12 9 23 8 24 -25 24 -24
0 -30 -3 -25 -16z"/>
<path d="M1463 904 c-3 -8 4 -25 16 -38 l22 -24 -33 -5 c-18 -2 -41 -1 -50 4
-10 5 -19 5 -22 0 -4 -5 16 -27 44 -49 35 -28 57 -38 77 -36 18 2 48 -9 84
-32 31 -19 61 -34 67 -34 17 0 22 29 10 55 -10 23 -56 44 -98 45 -21 1 -78 52
-63 57 14 5 7 30 -15 56 -19 21 -31 22 -39 1z"/>
<path d="M1317 904 c-4 -4 3 -16 15 -26 25 -21 38 -7 18 17 -13 16 -23 19 -33
9z"/>
<path d="M4798 903 c-24 -6 -23 -33 1 -33 23 0 38 18 25 29 -5 4 -17 6 -26 4z"/>
<path d="M5041 901 c-10 -7 -10 -10 -1 -16 6 -4 16 -3 22 3 13 13 -4 23 -21
13z"/>
<path d="M4863 884 c-3 -9 0 -20 7 -24 20 -12 50 1 50 21 0 24 -48 26 -57 3z"/>
<path d="M5300 877 c-34 -17 -39 -47 -8 -47 13 0 32 7 43 15 17 13 17 17 5 30
-12 12 -19 12 -40 2z"/>
<path d="M1733 859 c-13 -13 -5 -59 11 -60 6 -1 27 -2 46 -3 19 -1 48 -6 63
-10 24 -6 28 -4 25 10 -2 10 -16 22 -33 27 -16 6 -41 18 -54 28 -27 22 -42 24
-58 8z"/>
<path d="M5528 834 c-29 -15 -37 -39 -15 -46 17 -6 117 -1 124 6 3 3 2 16 -4
28 -12 27 -66 33 -105 12z"/>
<path d="M5087 834 c-12 -12 -8 -41 8 -54 20 -17 47 5 43 34 -3 21 -37 34 -51
20z"/>
<path d="M1928 824 c-10 -9 3 -42 18 -48 10 -4 12 -16 8 -41 -5 -30 -2 -36 20
-47 35 -15 43 -4 27 35 -7 18 -14 46 -16 62 -1 17 -3 33 -4 38 -1 8 -45 10
-53 1z"/>
<path d="M5213 823 c-7 -2 -13 -16 -13 -29 0 -13 -6 -33 -12 -44 -10 -15 -10
-22 -1 -31 15 -15 78 29 86 61 9 33 -25 58 -60 43z"/>
<path d="M2096 797 c-11 -8 -17 -23 -14 -38 2 -19 10 -25 34 -27 24 -2 33 2
42 22 10 22 8 27 -11 41 -26 18 -29 18 -51 2z"/>
<path d="M3342 802 c-17 -12 -4 -42 18 -42 25 0 35 18 20 35 -14 17 -20 18
-38 7z"/>
<path d="M4375 775 c-17 -12 -18 -16 -6 -24 18 -12 54 5 48 22 -5 17 -21 18
-42 2z"/>
<path d="M5640 762 c-21 -7 -30 -23 -30 -54 0 -52 73 -42 77 11 2 24 -27 50
-47 43z"/>
<path d="M2427 753 c-4 -3 -7 -17 -7 -30 0 -29 41 -48 70 -33 16 9 18 14 8 34
-12 28 -55 45 -71 29z"/>
<path d="M4610 745 c-16 -20 -6 -44 17 -40 10 2 21 4 26 4 4 1 7 12 7 26 0 29
-29 35 -50 10z"/>
<path d="M5771 739 c-26 -24 -24 -39 6 -50 16 -6 29 -2 47 12 30 23 33 44 10
53 -26 10 -39 7 -63 -15z"/>
<path d="M5328 742 c-25 -5 -30 -31 -8 -49 11 -10 20 -28 20 -40 0 -13 9 -28
19 -35 15 -9 17 -16 10 -30 -10 -19 -5 -38 12 -38 5 0 18 -9 28 -19 19 -19 19
-19 -10 -32 -21 -8 -36 -9 -52 -2 -13 6 -35 9 -51 8 -33 -4 -45 18 -22 40 21
21 20 41 0 49 -22 8 -56 -22 -49 -44 4 -13 -5 -20 -35 -30 -22 -7 -40 -16 -40
-20 0 -3 -16 -24 -35 -46 -39 -44 -40 -47 -22 -62 17 -15 61 7 65 33 5 26 21
45 38 45 24 0 15 -24 -29 -73 -42 -48 -44 -49 -106 -50 -40 -1 -67 3 -73 11
-6 6 -27 12 -47 12 -20 0 -49 9 -66 20 -35 23 -83 26 -91 6 -3 -9 8 -30 27
-49 32 -34 33 -34 76 -21 43 13 48 11 44 -22 -2 -21 24 -34 55 -25 16 4 43 6
61 4 17 -2 34 1 38 7 3 5 21 10 40 10 44 0 85 19 85 40 0 9 7 25 15 36 8 10
15 27 15 37 0 9 3 17 8 18 19 2 60 9 91 15 26 5 36 3 43 -10 11 -19 36 -20 60
-3 12 10 15 21 9 47 -5 26 -3 38 8 48 14 11 14 14 -3 27 -10 8 -22 12 -26 10
-9 -5 -19 52 -12 60 3 3 19 5 36 5 36 0 50 8 60 34 9 26 -9 36 -47 25 -31 -9
-78 9 -107 40 -8 9 -22 15 -32 13z"/>
<path d="M1723 733 c-22 -8 -15 -43 7 -43 11 0 23 0 28 -1 4 0 8 7 10 15 4 17
-26 36 -45 29z"/>
<path d="M4911 727 c-20 -20 -13 -47 14 -47 23 0 54 34 38 43 -24 13 -42 14
-52 4z"/>
<path d="M2887 703 c-12 -11 -8 -22 14 -33 15 -9 24 -8 36 1 13 12 13 14 -3
26 -20 14 -37 17 -47 6z"/>
<path d="M3795 690 c-3 -5 3 -15 15 -22 11 -7 20 -20 20 -29 0 -23 24 -30 46
-15 20 15 11 36 -15 36 -10 0 -21 9 -24 20 -5 21 -31 27 -42 10z"/>
<path d="M1824 676 c-3 -8 -4 -30 -2 -51 3 -32 8 -38 46 -55 41 -19 42 -19 42
1 0 10 -9 27 -20 36 -11 10 -25 32 -31 50 -11 35 -26 43 -35 19z"/>
<path d="M3263 680 c-30 -12 -20 -39 13 -35 31 3 38 10 31 30 -7 17 -13 18
-44 5z"/>
<path d="M4207 679 c-19 -11 -23 -34 -7 -44 15 -9 47 3 54 20 7 20 -25 36 -47
24z"/>
<path d="M2182 658 c4 -30 43 -33 43 -3 0 13 -8 21 -23 23 -20 3 -23 0 -20
-20z"/>
<path d="M5100 663 c-24 -9 -29 -23 -19 -56 11 -38 13 -40 38 -32 16 5 20 12
15 30 -3 12 -1 26 6 30 8 5 8 10 -1 21 -12 15 -16 16 -39 7z"/>
<path d="M5545 640 c-26 -27 -26 -29 -8 -38 11 -6 25 -7 32 -3 13 8 103 5 129
-4 18 -7 72 26 72 43 0 10 -18 13 -72 11 -40 0 -85 4 -99 9 -23 9 -30 7 -54
-18z"/>
<path d="M1682 647 c-27 -32 71 -80 108 -54 19 13 18 15 -13 38 -38 28 -79 35
-95 16z"/>
<path d="M1958 640 c-18 -14 -19 -20 -9 -39 9 -17 20 -21 43 -19 37 4 58 30
42 55 -14 22 -51 24 -76 3z"/>
<path d="M2486 641 c-8 -12 21 -34 34 -26 8 5 8 11 -1 21 -13 16 -25 18 -33 5z"/>
<path d="M3742 638 c-18 -18 -15 -36 7 -43 24 -7 48 2 56 22 10 29 -39 45 -63
21z"/>
<path d="M4506 634 c-26 -19 -13 -48 16 -38 25 7 39 24 35 38 -5 15 -31 15
-51 0z"/>
<path d="M4101 631 c-21 -13 -5 -41 23 -41 27 0 44 29 24 42 -17 10 -30 10
-47 -1z"/>
<path d="M2249 619 c-11 -8 -9 -14 13 -33 25 -22 59 -30 58 -13 0 4 0 11 0 17
0 17 -55 40 -71 29z"/>
<path d="M4835 610 c-12 -14 -13 -19 -3 -27 15 -12 48 -2 67 21 11 13 11 16 0
20 -26 8 -49 3 -64 -14z"/>
<path d="M2664 575 c-7 -18 13 -45 33 -45 19 0 28 27 13 45 -16 19 -39 19 -46
0z"/>
<path d="M2145 563 c-7 -19 42 -40 57 -25 6 6 8 18 5 26 -8 19 -54 18 -62 -1z"/>
<path d="M2465 571 c-10 -17 14 -50 41 -57 36 -9 49 8 27 34 -21 24 -59 37
-68 23z"/>
<path d="M4511 571 c-21 -13 -5 -41 23 -41 33 0 44 20 21 37 -22 15 -25 16
-44 4z"/>
<path d="M4678 558 c-28 -22 -31 -55 -8 -71 12 -8 29 -14 38 -12 9 2 20 4 23
4 15 2 17 47 3 68 -16 26 -33 29 -56 11z"/>
<path d="M5125 554 c-22 -23 -5 -38 34 -29 22 5 31 12 31 26 0 24 -42 26 -65
3z"/>
<path d="M1811 551 c-10 -7 -5 -13 23 -26 44 -21 61 -11 27 16 -26 21 -30 22
-50 10z"/>
<path d="M2825 543 c-31 -30 -8 -58 40 -48 11 2 25 4 31 4 17 1 27 32 14 45
-16 16 -69 16 -85 -1z"/>
<path d="M4941 551 c-51 -13 -44 -81 9 -81 34 0 51 25 40 56 -11 28 -19 32
-49 25z"/>
<path d="M2355 540 c-6 -9 21 -40 35 -40 15 0 23 21 11 33 -14 14 -39 18 -46
7z"/>
<path d="M3016 525 c-8 -22 42 -45 54 -25 10 17 4 25 -26 34 -15 5 -24 2 -28
-9z"/>
<path d="M5476 524 c-10 -9 -15 -23 -12 -31 3 -8 6 -17 6 -19 0 -2 10 -4 23
-4 29 0 90 37 84 53 -6 20 -82 21 -101 1z"/>
<path d="M2070 520 c-29 -18 41 -70 94 -70 30 0 34 5 28 35 -3 19 -13 27 -41
34 -41 10 -65 11 -81 1z"/>
<path d="M3414 519 c-8 -14 5 -26 39 -34 20 -5 27 -3 27 7 0 31 -50 52 -66 27z"/>
<path d="M3873 523 c-17 -6 -16 -32 1 -39 21 -8 56 14 50 31 -6 15 -27 18 -51
8z"/>
<path d="M3649 504 c-9 -11 -9 -18 -2 -25 14 -14 53 -2 53 16 0 19 -37 25 -51
9z"/>
<path d="M4221 496 c-10 -12 -8 -16 8 -21 27 -8 63 3 58 18 -5 18 -52 20 -66
3z"/>
<path d="M1972 488 c-20 -20 -14 -33 27 -56 47 -27 60 -12 30 37 -20 33 -37
39 -57 19z"/>
<path d="M3267 484 c-15 -8 -32 -12 -37 -9 -6 3 -10 -1 -10 -10 0 -19 17 -26
62 -27 53 0 57 1 69 23 20 38 -31 52 -84 23z"/>
<path d="M5058 493 c-9 -2 -19 -11 -22 -19 -5 -14 -1 -16 29 -16 36 0 45 3 45
16 0 11 -26 30 -33 25 -1 -1 -9 -3 -19 -6z"/>
<path d="M4080 476 c-10 -13 -9 -17 4 -22 22 -8 49 3 44 19 -7 18 -33 20 -48
3z"/>
<path d="M3095 466 c-18 -13 -17 -14 4 -26 19 -10 26 -9 38 3 14 13 13 16 -4
26 -15 7 -25 7 -38 -3z"/>
<path d="M3770 446 c0 -10 9 -16 21 -16 24 0 21 23 -4 28 -10 2 -17 -3 -17
-12z"/>
<path d="M2290 440 c-10 -6 -4 -39 9 -41 3 -1 24 -3 46 -4 22 -2 57 -6 78 -10
41 -8 49 5 23 40 -11 15 -28 19 -79 21 -36 0 -71 -2 -77 -6z"/>
<path d="M2604 438 c-11 -18 22 -40 68 -45 52 -6 112 15 99 35 -10 17 -157 26
-167 10z"/>
<path d="M4349 434 c-20 -24 9 -43 76 -50 51 -5 64 -3 85 14 32 26 22 35 -38
34 -27 -1 -63 2 -80 7 -23 7 -34 6 -43 -5z"/>
<path d="M2500 430 c-18 -11 -3 -47 21 -53 39 -10 61 10 41 39 -10 15 -47 23
-62 14z"/>
<path d="M2898 423 c-28 -7 -30 -32 -3 -39 27 -7 45 1 45 21 0 15 -18 23 -42
18z"/>
<path d="M3143 423 c-7 -3 -13 -11 -13 -18 0 -20 33 -36 51 -25 12 8 11 12 -6
29 -11 10 -26 17 -32 14z"/>
<path d="M4137 423 c-13 -12 -7 -41 9 -47 37 -14 61 5 48 39 -6 15 -45 21 -57
8z"/>
<path d="M2180 405 c-9 -11 -6 -17 14 -30 28 -19 56 -14 56 9 0 28 -52 43 -70
21z"/>
<path d="M2092 403 c-10 -4 -7 -9 8 -20 12 -8 24 -12 28 -9 9 10 -21 34 -36
29z"/>
<path d="M3559 394 c-9 -11 -10 -20 -2 -32 14 -22 53 -22 67 1 9 15 7 21 -8
33 -25 18 -40 18 -57 -2z"/>
<path d="M2993 389 c-25 -9 -31 -47 -12 -66 9 -9 7 -11 -7 -7 -24 5 -49 -10
-40 -25 11 -17 54 -13 64 5 8 14 15 15 40 6 44 -15 50 1 16 49 -33 49 -34 49
-61 38z"/>
<path d="M3997 383 c-18 -18 0 -53 28 -53 12 0 33 33 29 45 -6 15 -45 21 -57
8z"/>
<path d="M4554 375 c-8 -19 3 -35 25 -35 22 0 45 25 36 40 -9 15 -55 12 -61
-5z"/>
<path d="M4665 356 c-15 -14 -34 -26 -42 -26 -7 0 -19 -12 -25 -26 -17 -36 5
-48 44 -24 24 14 36 16 63 7 41 -12 74 5 54 29 -6 8 -18 14 -25 14 -8 0 -14 4
-14 8 0 5 -6 16 -13 26 -13 17 -15 17 -42 -8z"/>
<path d="M2344 345 c-19 -13 -19 -14 1 -29 11 -8 25 -16 32 -16 6 0 15 -9 18
-20 7 -21 48 -46 97 -61 29 -8 36 -1 17 18 -6 6 -17 22 -23 35 -6 12 -25 29
-41 37 -17 8 -32 17 -35 21 -15 21 -48 29 -66 15z"/>
<path d="M4175 350 c-4 -6 -3 -16 3 -22 6 -6 12 -6 17 2 4 6 3 16 -3 22 -6 6
-12 6 -17 -2z"/>
<path d="M2210 339 c0 -10 59 -39 80 -39 20 0 10 38 -12 44 -36 9 -68 7 -68
-5z"/>
<path d="M2491 341 c-17 -11 -3 -40 30 -56 32 -17 79 -20 79 -5 0 6 5 10 10
10 6 0 10 -9 10 -20 0 -26 44 -37 84 -20 29 11 50 13 101 7 27 -3 30 27 5 51
-14 13 -31 19 -48 16 -15 -3 -46 -7 -69 -9 -23 -2 -47 -6 -53 -10 -6 -4 -30 3
-54 15 -52 25 -79 31 -95 21z"/>
<path d="M3423 332 c-13 -2 -23 -9 -23 -16 0 -16 39 -34 63 -28 42 9 4 52 -40
44z"/>
<path d="M3723 320 c-28 -11 -29 -22 -4 -44 35 -32 91 3 62 38 -15 18 -26 19
-58 6z"/>
<path d="M3883 307 c-13 -5 -23 -16 -23 -22 0 -19 37 -25 57 -10 16 12 16 15
3 28 -11 11 -20 12 -37 4z"/>
<path d="M4223 307 c-9 -15 25 -36 48 -30 30 8 19 38 -14 39 -15 1 -30 -3 -34
-9z"/>
<path d="M2320 300 c-12 -8 -12 -10 3 -16 21 -8 35 2 21 16 -5 5 -15 6 -24 0z"/>
<path d="M3304 295 c-4 -8 -3 -27 0 -41 9 -32 -16 -74 -41 -69 -10 1 -31 -5
-48 -14 -16 -9 -42 -16 -57 -15 -44 4 -69 -45 -38 -76 24 -24 45 -18 86 26 27
28 38 32 71 30 25 -2 48 -11 61 -24 12 -12 28 -22 35 -22 7 0 18 -9 25 -20 8
-14 23 -20 46 -20 19 0 42 -7 51 -16 24 -24 87 -29 128 -9 32 15 38 15 66 1
38 -20 121 -22 121 -3 0 14 -43 40 -72 43 -33 3 -45 13 -52 44 -4 20 -13 34
-26 37 -42 11 -8 33 51 33 44 0 68 43 30 53 -11 2 -24 0 -30 -6 -13 -13 -123
-12 -148 1 -11 6 -25 7 -33 2 -18 -11 -12 -17 23 -24 15 -2 34 -11 42 -19 8
-9 20 -18 27 -21 10 -5 10 -7 1 -12 -19 -9 -16 -39 7 -59 27 -24 18 -33 -32
-30 -24 2 -55 4 -70 4 -15 1 -33 8 -40 17 -37 44 -50 54 -76 54 -16 0 -36 6
-46 13 -16 12 -16 14 2 30 17 16 18 23 9 55 -18 62 -59 94 -73 57z"/>
<path d="M4388 298 c-49 -17 -34 -82 21 -93 19 -4 26 6 22 29 -1 5 1 16 5 25
11 24 11 35 -1 43 -12 9 -13 9 -47 -4z"/>
<path d="M4793 279 c-12 -4 -25 -18 -29 -31 -9 -30 -30 -45 -74 -53 -19 -4
-51 -15 -72 -26 -21 -11 -38 -17 -38 -15 0 3 -14 1 -32 -4 -26 -8 -34 -6 -44
9 -18 25 -49 32 -73 15 -17 -12 -18 -19 -10 -37 6 -12 21 -30 35 -40 21 -16
26 -16 53 -3 15 8 31 13 34 10 9 -9 187 45 241 72 33 17 52 22 59 15 7 -7 19
-5 37 4 15 8 30 11 34 8 3 -4 6 -1 6 5 0 6 -11 14 -24 18 -13 3 -28 16 -34 28
-12 27 -39 36 -69 25z"/>
<path d="M2886 269 c-36 -10 -48 -27 -34 -52 8 -16 16 -18 51 -12 61 12 97 8
118 -11 23 -21 24 -52 3 -82 -19 -28 -17 -31 30 -39 l37 -6 0 39 c-1 22 0 52
2 68 2 26 -2 30 -41 41 -24 8 -51 20 -60 28 -27 23 -74 35 -106 26z"/>
<path d="M3151 266 c-9 -11 -5 -16 20 -25 43 -15 74 -14 88 2 8 11 5 16 -15
25 -34 16 -79 15 -93 -2z"/>
<path d="M3418 242 c-24 -5 -23 -29 2 -42 24 -13 67 -3 67 15 0 16 -43 33 -69
27z"/>
<path d="M4153 234 c-3 -8 -3 -23 0 -34 5 -20 -11 -40 -36 -44 -30 -4 -47 -27
-36 -47 7 -14 5 -25 -7 -44 -20 -31 -14 -39 31 -37 69 3 99 44 48 67 -22 10
-22 11 -5 33 16 21 34 29 69 31 15 1 43 29 43 44 0 25 -18 37 -59 42 -30 3
-44 0 -48 -11z"/>
<path d="M2595 230 c-3 -6 -3 -19 0 -30 7 -21 99 -54 145 -51 70 4 99 4 143
-3 68 -10 60 24 -10 39 -18 3 -35 10 -38 15 -3 5 -19 5 -36 0 -16 -5 -40 -5
-52 -1 -11 4 -36 3 -55 -3 -31 -9 -36 -8 -54 17 -21 29 -33 33 -43 17z"/>
<path d="M3990 216 c-10 -26 -53 -38 -90 -24 -56 21 -72 -17 -23 -56 16 -12
22 -24 18 -37 -4 -11 0 -26 10 -35 11 -12 13 -20 5 -29 -8 -9 -6 -14 5 -19 19
-7 75 4 76 15 3 19 5 25 17 47 16 28 8 42 -24 42 -33 0 -27 21 12 38 29 14 58
57 48 73 -11 18 -45 9 -54 -15z"/>
<path d="M4552 232 c-15 -10 -6 -42 12 -42 31 1 56 14 56 31 0 14 -7 19 -27
19 -16 0 -34 -4 -41 -8z"/>
<path d="M4320 175 c-19 -7 -44 -14 -56 -14 -27 -1 -67 -44 -62 -68 3 -15 12
-18 50 -17 63 2 77 9 89 43 6 16 19 31 30 34 24 6 25 37 2 36 -10 0 -34 -7
-53 -14z"/>
<path d="M3791 136 c-15 -18 -3 -46 20 -46 18 0 39 27 39 49 0 16 -46 13 -59
-3z"/>
<path d="M4370 131 c0 -5 -12 -24 -27 -41 l-26 -32 29 5 c39 7 64 17 65 28 1
5 2 15 3 22 1 6 -3 15 -9 19 -14 11 -35 10 -35 -1z"/>
<path d="M2860 123 c0 -10 21 -20 62 -29 27 -6 32 -6 53 -5 17 1 18 3 4 16
-18 18 -119 33 -119 18z"/>
<path d="M3325 82 c-8 -9 -44 -15 -92 -15 -40 -1 -54 -9 -35 -21 5 -3 36 -7
70 -11 65 -6 102 5 102 29 0 14 -35 28 -45 18z"/>
</g>
</svg>
